<?xml version="1.0" standalone="no"?>
<!DOCTYPE svg PUBLIC "-//W3C//DTD SVG 20010904//EN"
 "http://www.w3.org/TR/2001/REC-SVG-20010904/DTD/svg10.dtd">
<svg version="1.0" xmlns="http://www.w3.org/2000/svg"
 width="512.000000pt" height="512.000000pt" viewBox="0 0 512.000000 512.000000"
 preserveAspectRatio="xMidYMid meet">

<g transform="translate(0.000000,512.000000) scale(0.100000,-0.100000)"
fill="#000000" stroke="none">
<path d="M2335 5109 c-42 -12 -109 -71 -130 -115 -13 -27 -75 -379 -75 -425 0
-5 -12 -11 -27 -15 -186 -40 -423 -135 -585 -234 l-67 -40 -157 116 c-86 64
-173 123 -193 131 -48 20 -130 19 -178 -3 -49 -23 -304 -278 -327 -327 -22
-48 -23 -130 -3 -178 8 -20 67 -107 131 -193 l116 -157 -40 -67 c-99 -162
-194 -399 -234 -584 -4 -16 -10 -28 -15 -28 -46 0 -398 -62 -425 -75 -46 -22
-103 -88 -116 -134 -13 -48 -13 -396 1 -445 15 -55 92 -129 149 -144 25 -6
124 -23 220 -38 96 -14 178 -31 182 -37 4 -7 8 -19 8 -28 0 -21 45 -169 77
-254 32 -87 123 -273 164 -336 l30 -47 -117 -158 c-64 -86 -123 -173 -131
-193 -20 -48 -19 -130 3 -178 23 -49 277 -304 327 -327 46 -21 132 -23 178 -3
19 8 99 62 178 121 79 58 145 105 147 103 2 -1 -1 -35 -7 -74 -5 -39 -9 -214
-7 -388 l3 -317 24 -19 c23 -18 55 -19 1121 -19 1066 0 1098 1 1121 19 l24 19
3 317 c2 174 -2 349 -7 388 -6 39 -8 73 -7 75 2 1 68 -45 147 -104 78 -58 158
-113 178 -121 48 -20 130 -19 178 3 49 22 304 277 327 327 22 48 23 130 3 178
-8 20 -67 107 -131 193 l-117 157 34 57 c59 99 97 176 97 200 0 13 -11 33 -25
46 l-25 23 24 59 c22 54 27 59 61 65 20 3 42 12 50 20 13 14 55 142 55 170 0
31 23 39 190 63 96 14 195 31 220 38 58 15 131 87 148 144 16 54 16 392 0 445
-14 50 -67 112 -114 134 -27 13 -379 75 -425 75 -5 0 -11 12 -15 28 -43 189
-151 457 -245 604 l-30 46 117 158 c64 86 123 173 131 192 22 52 18 132 -7
183 -28 56 -272 299 -323 323 -48 22 -130 23 -178 3 -20 -8 -107 -67 -193
-131 l-158 -117 -46 30 c-129 82 -351 177 -529 226 -57 16 -103 32 -103 35 0
45 -63 398 -75 424 -22 46 -88 103 -134 116 -44 12 -404 12 -446 -1z m494
-1148 c285 -56 526 -185 737 -395 209 -210 333 -439 395 -736 31 -149 31 -391
0 -540 -75 -357 -256 -648 -534 -862 l-78 -60 -38 25 c-65 43 -174 94 -250
117 l-73 22 36 30 c93 76 160 162 210 267 26 53 33 60 65 66 94 17 179 80 221
162 22 43 25 61 26 168 0 82 7 155 22 230 118 590 -26 969 -404 1065 -42 11
-102 20 -132 20 -55 0 -56 1 -109 60 -70 77 -180 150 -274 181 -64 21 -92 24
-204 23 -114 0 -140 -4 -215 -28 -113 -38 -236 -100 -256 -131 -10 -16 -14
-36 -11 -57 5 -30 1 -36 -50 -77 -47 -37 -59 -42 -74 -32 -48 29 -102 -10
-189 -134 -109 -159 -149 -282 -157 -490 -6 -167 10 -277 63 -434 32 -93 35
-109 25 -142 -16 -52 -14 -138 5 -192 31 -90 133 -174 235 -192 32 -6 39 -13
65 -66 50 -105 117 -191 210 -267 l36 -30 -73 -22 c-76 -23 -185 -74 -250
-117 l-38 -25 -78 60 c-98 74 -243 227 -307 321 -62 93 -71 101 -112 101 -32
0 -36 4 -66 64 l-31 63 22 22 c27 27 26 45 -4 145 -44 147 -59 250 -59 416 0
333 96 613 300 875 243 314 600 508 1009 549 79 8 288 -5 384 -23z m51 -1086
c57 -88 122 -158 201 -216 l69 -52 0 -276 c0 -310 -5 -345 -67 -465 -46 -89
-154 -198 -240 -244 -235 -124 -516 -82 -703 107 -73 73 -130 172 -155 267
-12 45 -15 119 -15 331 l0 273 28 5 c318 69 579 176 743 305 84 67 70 70 139
-35z m-1070 -667 c0 -62 3 -124 7 -138 l6 -24 -34 21 c-64 41 -86 119 -53 189
15 32 48 64 66 64 5 0 8 -51 8 -112z m1536 97 c28 -19 54 -75 54 -117 0 -45
-28 -94 -69 -121 l-34 -21 6 24 c4 14 7 76 7 138 0 61 3 112 8 112 4 0 17 -7
28 -15z m-1034 -1030 l44 -115 -57 -311 c-37 -204 -54 -320 -49 -333 4 -12 71
-83 147 -158 99 -98 146 -138 163 -138 17 0 64 40 163 138 76 75 143 146 147
158 5 13 -12 129 -49 332 l-58 312 45 115 c44 113 45 115 77 115 57 0 184 -38
263 -80 192 -100 327 -268 384 -479 18 -66 21 -115 25 -379 l5 -302 -136 0
-136 0 0 194 c0 111 -4 207 -10 222 -21 54 -77 71 -121 35 -24 -19 -24 -22
-27 -235 l-3 -216 -569 0 -569 0 -3 216 c-3 213 -3 216 -27 235 -44 36 -100
19 -121 -35 -6 -15 -10 -111 -10 -222 l0 -194 -136 0 -136 0 5 302 c5 344 14
396 87 536 77 148 184 253 334 329 75 38 190 72 247 72 l36 1 45 -115z"/>
<path d="M2205 2418 c-39 -21 -45 -39 -45 -141 0 -110 6 -129 49 -146 24 -10
34 -10 59 3 39 20 42 31 42 141 0 110 -3 121 -41 140 -33 18 -38 18 -64 3z"/>
<path d="M2855 2418 c-39 -21 -45 -39 -45 -141 0 -110 6 -129 49 -146 24 -10
34 -10 59 3 39 20 42 31 42 141 0 110 -3 121 -41 140 -33 18 -38 18 -64 3z"/>
<path d="M2395 2012 c-80 -17 -78 -104 4 -174 118 -101 320 -64 377 69 24 55
-7 104 -67 105 -26 1 -39 -7 -65 -38 -31 -36 -37 -39 -84 -39 -46 0 -54 4 -83
36 -35 40 -51 48 -82 41z"/>
</g>
</svg>
