<?xml version="1.0" standalone="no"?>
<!DOCTYPE svg PUBLIC "-//W3C//DTD SVG 20010904//EN"
 "http://www.w3.org/TR/2001/REC-SVG-20010904/DTD/svg10.dtd">
<svg version="1.0" xmlns="http://www.w3.org/2000/svg"
 width="500.000000pt" height="500.000000pt" viewBox="0 0 500.000000 500.000000"
 preserveAspectRatio="xMidYMid meet">

<g transform="translate(0.000000,500.000000) scale(0.100000,-0.100000)"
fill="#000000" stroke="none">
<path d="M2640 4631 c17 -14 20 -21 10 -21 -9 0 -15 -10 -16 -27 -2 -71 -8
-78 -55 -76 l-44 3 56 -18 c79 -26 84 -31 62 -51 -10 -10 -29 -33 -42 -52 -13
-19 -39 -46 -57 -61 -40 -30 -348 -136 -425 -145 l-51 -6 7 54 c9 65 27 111
62 158 l26 36 -28 -25 c-15 -14 -38 -47 -51 -75 -30 -62 -31 -137 -8 -523 12
-208 13 -276 4 -287 -9 -11 -7 -16 11 -26 31 -16 49 10 49 72 0 58 19 78 54
59 14 -7 36 -9 54 -5 18 3 33 2 37 -4 3 -6 19 -11 36 -11 16 0 29 -4 29 -10 0
-16 -36 -30 -77 -30 -44 0 -89 -25 -63 -34 34 -13 143 -34 153 -31 7 2 75 9
152 14 77 6 163 16 192 22 64 15 95 -1 113 -58 17 -53 21 -55 75 -43 59 13 76
1 104 -74 36 -98 37 -93 -11 -100 -24 -4 -67 -18 -97 -32 -65 -30 -73 -23 -65
52 12 95 -23 75 -85 -49 l-36 -73 38 -55 c21 -30 50 -79 65 -109 15 -30 32
-58 37 -62 7 -5 7 -8 0 -8 -16 0 -66 50 -60 60 3 4 2 10 -2 12 -5 1 -20 22
-35 45 -31 48 -88 74 -114 52 -13 -10 -12 -15 7 -35 27 -29 21 -37 -27 -38
-42 -2 -68 -32 -37 -43 115 -41 223 -93 243 -118 8 -9 16 -35 19 -58 3 -22 12
-42 20 -45 11 -4 12 1 7 19 -24 86 -26 85 59 25 62 -45 85 -56 116 -56 50 0
109 48 109 89 0 16 -24 108 -54 206 -30 97 -52 184 -49 192 8 20 -43 152 -81
210 l-33 50 24 27 c12 15 23 39 23 53 0 24 -10 156 -41 530 -12 158 -39 294
-67 350 -27 52 -100 116 -125 109 -11 -2 -16 -2 -13 1 7 7 -59 60 -99 80 l-30
14 25 -20z m86 -208 c-10 -10 -19 5 -10 18 6 11 8 11 12 0 2 -7 1 -15 -2 -18z
m-39 -105 c-3 -8 -6 -5 -6 6 -1 11 2 17 5 13 3 -3 4 -12 1 -19z m-17 -27 c0
-5 3 -23 7 -41 4 -24 3 -31 -5 -26 -7 4 -12 1 -12 -7 0 -20 -42 -53 -86 -67
l-38 -13 27 -21 c15 -12 27 -32 27 -44 0 -13 7 -37 16 -54 22 -43 34 -85 26
-93 -4 -4 -8 -10 -8 -13 -7 -31 -19 -52 -30 -52 -14 0 -104 -58 -115 -74 -4
-5 -38 -8 -75 -7 -100 2 -168 37 -212 111 -38 64 -60 132 -69 213 -7 65 -12
61 91 57 35 -1 56 2 53 7 -6 10 183 67 260 79 23 3 59 17 80 30 40 24 63 30
63 15z m114 -676 c40 -6 46 -10 46 -31 0 -22 -4 -24 -48 -24 -72 0 -125 47
-102 89 10 19 11 19 34 -4 14 -14 41 -26 70 -30z m46 -416 c0 -9 7 -23 16 -30
13 -11 17 -10 26 5 13 23 68 46 112 46 38 0 28 19 100 -188 20 -57 36 -108 36
-113 0 -5 -21 0 -47 10 -30 11 -63 16 -86 13 -29 -3 -44 1 -60 16 -12 11 -36
26 -52 35 -66 33 -78 67 -67 190 3 38 8 54 13 45 5 -7 9 -20 9 -29z"/>
<path d="M2240 4130 l-55 -7 57 -1 c31 -1 60 3 63 8 3 6 3 9 -2 8 -4 -1 -33
-4 -63 -8z"/>
<path d="M2217 4083 c-14 -14 -6 -53 13 -63 34 -18 51 9 34 54 -6 16 -35 22
-47 9z"/>
<path d="M2431 4011 c-13 -10 -21 -23 -17 -30 11 -18 44 -13 56 8 23 43 3 54
-39 22z"/>
<path d="M2495 3949 c-11 -4 -37 -8 -57 -8 -43 -1 -57 -16 -29 -30 30 -16 66
-13 91 7 27 22 24 43 -5 31z"/>
<path d="M2175 3255 c8 -46 12 -55 27 -55 15 0 1 61 -18 80 -15 14 -16 11 -9
-25z"/>
<path d="M2368 3203 c-10 -3 -18 -6 -18 -8 0 -2 16 -27 35 -57 48 -73 45 -82
-35 -86 l-65 -3 -28 45 c-33 53 -32 77 3 88 17 5 10 6 -20 3 -25 -2 -85 -8
-133 -11 -60 -5 -90 -11 -94 -20 -3 -8 -8 -12 -12 -10 -12 7 -28 -20 -27 -46
1 -15 -3 -26 -8 -25 -22 4 -8 -44 32 -107 28 -45 48 -67 60 -65 30 3 35 -1 22
-16 -7 -8 -16 -12 -21 -9 -5 3 -9 -1 -9 -10 0 -19 39 -15 71 7 55 39 54 0 -1
-43 -38 -30 -50 -50 -31 -50 5 0 30 16 55 35 26 19 51 35 56 35 20 0 -8 -36
-49 -65 -40 -27 -52 -45 -30 -45 6 0 31 14 55 32 24 17 47 28 51 25 9 -9 -26
-46 -61 -64 -19 -10 -25 -18 -18 -25 7 -7 26 -3 58 11 l49 21 -30 -25 c-16
-13 -45 -28 -65 -33 l-35 -10 32 -1 31 -1 -19 -62 c-25 -82 -24 -102 5 -117
13 -7 29 -25 36 -39 14 -32 11 -149 -7 -226 -16 -69 -39 -200 -48 -276 -4 -30
-8 -57 -10 -60 -3 -5 -21 -152 -29 -235 -2 -22 -9 -67 -15 -100 -13 -75 -20
-119 -27 -170 -4 -33 -37 -211 -49 -265 -1 -8 -6 -37 -9 -63 -4 -26 -11 -71
-17 -100 -5 -29 -12 -70 -16 -92 -3 -22 -10 -51 -14 -64 -5 -13 -8 -25 -7 -25
2 -1 14 -7 28 -13 l25 -12 -31 0 c-22 -1 -37 -8 -48 -25 -9 -14 -27 -26 -43
-28 -24 -3 -19 -7 35 -27 52 -20 67 -31 87 -66 14 -23 25 -55 25 -72 0 -25 5
-32 25 -37 20 -5 25 -13 25 -38 0 -17 -5 -47 -11 -68 -13 -42 -35 -53 -143
-73 -79 -15 -85 -32 -12 -31 62 1 176 39 207 67 20 19 21 26 14 128 -8 129 -2
169 26 169 11 0 33 7 49 15 30 15 50 62 50 116 0 24 62 427 151 974 33 201 71
393 88 436 12 32 47 44 56 20 21 -53 33 -1360 13 -1434 -18 -67 -3 -98 58
-119 40 -13 50 -21 52 -42 3 -22 8 -26 33 -26 50 0 98 -60 90 -112 0 -5 21 -8
48 -8 l49 0 -5 64 c-8 90 0 112 42 126 19 6 38 17 42 23 9 15 4 958 -7 1253
-12 310 -39 487 -107 717 l-26 87 -81 0 -81 0 -134 215 c-148 240 -159 254
-183 248z m344 -2463 l53 -8 -71 -1 c-49 -1 -76 4 -90 14 -18 14 -16 15 18 9
21 -3 61 -10 90 -14z"/>
<path d="M2315 3139 c-4 -5 0 -18 8 -27 7 -9 17 -25 20 -34 8 -22 47 -24 47
-3 0 9 -6 18 -14 21 -8 3 -12 12 -10 19 3 7 -4 18 -15 24 -25 14 -28 14 -36 0z"/>
<path d="M2270 3101 c0 -22 29 -36 43 -22 7 7 6 15 -3 26 -17 21 -40 19 -40
-4z"/>
<path d="M2502 3085 c-11 -13 -10 -15 5 -15 10 0 24 4 31 9 11 7 10 10 -3 15
-20 7 -17 8 -33 -9z"/>
<path d="M2790 430 c-20 -7 -16 -8 25 -10 48 -3 49 -3 15 -10 -30 -6 -27 -7
25 -8 42 0 54 2 40 8 -18 8 -18 9 -2 9 10 1 15 6 12 11 -7 12 -79 12 -115 0z"/>
<path d="M2937 333 c-8 -38 -13 -44 -45 -53 -83 -23 -150 -7 -191 46 -13 16
-21 21 -21 12 0 -17 51 -68 71 -72 8 -1 31 -8 53 -15 40 -14 121 -10 137 6 6
6 9 34 7 64 l-3 54 -8 -42z"/>
</g>
</svg>
