<?xml version="1.0" standalone="no"?>
<!DOCTYPE svg PUBLIC "-//W3C//DTD SVG 20010904//EN"
 "http://www.w3.org/TR/2001/REC-SVG-20010904/DTD/svg10.dtd">
<svg version="1.0" xmlns="http://www.w3.org/2000/svg"
 width="512.000000pt" height="512.000000pt" viewBox="0 0 512.000000 512.000000"
 preserveAspectRatio="xMidYMid meet">

<g transform="translate(0.000000,512.000000) scale(0.100000,-0.100000)"
fill="#000000" stroke="none">
<path d="M12 5108 c-9 -9 -12 -456 -12 -1949 l0 -1938 22 -15 c32 -23 65 -20
93 9 l25 24 0 1871 0 1870 1158 0 c636 0 1167 -3 1179 -6 27 -7 771 -787 784
-821 5 -13 9 -177 9 -364 l0 -339 75 0 75 0 0 368 c-1 269 -4 373 -13 388 -7
12 -199 222 -427 468 l-415 446 -1270 0 c-975 0 -1274 -3 -1283 -12z"/>
<path d="M4559 5093 c-35 -18 -64 -43 -84 -71 l-30 -44 -3 -244 -3 -244 -103
0 c-89 0 -107 -3 -130 -21 l-26 -20 0 -328 c0 -316 1 -329 20 -346 29 -26 79
-24 102 4 16 21 18 46 18 292 l0 269 60 0 60 0 0 -908 0 -908 25 -51 c85 -171
365 -159 439 19 13 30 16 81 16 253 0 202 -1 216 -20 235 -25 25 -71 26 -101
1 -24 -19 -24 -22 -27 -228 -3 -194 -5 -209 -24 -230 -28 -30 -69 -37 -111
-19 -28 11 -38 23 -46 53 -12 44 -15 1346 -4 1983 6 361 8 395 24 411 37 37
104 36 137 -2 16 -18 17 -84 22 -850 l5 -831 24 -19 c30 -25 72 -24 99 1 l22
21 0 532 1 532 32 20 c27 17 32 26 32 60 0 34 -5 43 -32 60 l-32 20 -1 221 c0
234 -5 265 -48 323 -60 81 -209 106 -313 54z"/>
<path d="M3270 2160 l0 -260 -289 0 c-277 0 -289 -1 -315 -21 -30 -23 -35 -72
-12 -105 14 -19 40 -19 1103 -24 1196 -5 1113 -1 1173 -65 l25 -27 3 -696 c2
-780 5 -748 -68 -784 -33 -17 -127 -18 -1540 -18 -1475 0 -1506 0 -1537 20
-66 40 -64 5 -61 789 l3 709 23 25 c37 39 92 47 336 47 213 0 227 1 246 20 28
28 26 75 -5 106 l-25 25 -258 -3 -258 -3 -59 -30 c-37 -19 -72 -46 -92 -73
-63 -82 -63 -88 -63 -694 l0 -548 -730 0 -730 0 0 174 c0 160 -2 175 -21 200
-25 32 -77 36 -103 8 -14 -17 -16 -46 -14 -263 l3 -243 25 -13 c19 -10 195
-13 796 -13 l772 0 4 -89 c5 -110 39 -187 106 -238 88 -67 -11 -63 1647 -63
1658 0 1559 -4 1647 63 27 20 54 55 73 92 l30 59 0 731 0 731 -30 59 c-19 37
-46 72 -73 92 -84 64 -70 63 -864 63 l-718 0 0 260 0 260 -75 0 -75 0 0 -260z"/>
</g>
</svg>
