<?xml version="1.0" standalone="no"?>
<!DOCTYPE svg PUBLIC "-//W3C//DTD SVG 20010904//EN"
 "http://www.w3.org/TR/2001/REC-SVG-20010904/DTD/svg10.dtd">
<svg version="1.0" xmlns="http://www.w3.org/2000/svg"
 width="512.000000pt" height="512.000000pt" viewBox="0 0 512.000000 512.000000"
 preserveAspectRatio="xMidYMid meet">

<g transform="translate(0.000000,512.000000) scale(0.100000,-0.100000)"
fill="#000000" stroke="none">
<path d="M2216 5104 c-344 -53 -637 -258 -781 -543 -74 -149 -115 -314 -134
-541 -8 -104 -25 -571 -25 -727 l0 -43 -49 0 c-26 0 -91 -5 -145 -11 -432 -47
-737 -261 -817 -574 -28 -110 -38 -410 -31 -945 12 -836 21 -1106 40 -1174 29
-103 84 -194 171 -282 166 -168 362 -242 685 -260 148 -8 336 8 675 57 253 36
271 40 293 64 30 35 30 88 -2 120 -33 33 -164 72 -290 86 -134 15 -335 1 -521
-38 -169 -34 -405 -39 -500 -10 -145 45 -257 136 -319 260 l-36 72 -10 615
c-14 764 -1 1191 40 1374 27 122 101 221 215 287 224 131 467 154 1000 99 122
-13 326 -25 525 -30 179 -5 525 -14 770 -21 413 -11 454 -11 578 6 157 21 277
17 396 -14 158 -41 322 -145 404 -255 84 -113 112 -202 112 -356 1 -109 6
-127 47 -148 56 -30 105 4 127 88 99 391 -125 765 -553 926 -125 47 -269 74
-395 74 l-106 0 -2 113 c0 61 -2 229 -2 372 -2 280 -12 368 -61 540 -31 107
-96 248 -155 336 -57 84 -187 213 -275 271 -278 184 -578 257 -869 212z m435
-233 c180 -49 325 -130 454 -252 244 -232 310 -510 273 -1149 l-13 -225 -415
3 c-228 2 -554 -2 -725 -8 -172 -7 -386 -9 -480 -5 l-170 7 0 476 0 477 26 95
c15 52 39 121 53 154 94 211 317 386 561 440 101 22 333 16 436 -13z"/>
<path d="M2009 1910 c-59 -10 -96 -30 -135 -72 -46 -48 -66 -94 -72 -164 -9
-118 49 -220 150 -264 73 -31 185 -26 251 13 151 89 182 303 60 419 -58 55
-163 84 -254 68z"/>
<path d="M1152 1884 c-185 -92 -183 -357 3 -449 57 -29 175 -27 231 2 61 33
120 104 134 164 28 118 -37 248 -147 294 -59 25 -160 19 -221 -11z"/>
<path d="M3397 1824 c-421 -79 -832 -366 -1042 -727 -40 -70 -32 -127 39 -272
71 -145 149 -248 288 -379 88 -83 134 -118 217 -164 155 -85 267 -130 419
-168 368 -91 524 -74 864 97 429 215 686 484 705 736 6 73 6 73 -28 105 -19
18 -43 56 -54 83 -85 227 -377 495 -663 611 -167 68 -264 86 -477 90 -138 2
-212 -1 -268 -12z m588 -234 c287 -78 528 -250 663 -473 l32 -53 -11 -105
c-13 -128 -32 -172 -105 -250 -170 -177 -482 -351 -718 -400 -121 -25 -181
-24 -301 5 -270 66 -413 144 -675 370 -91 79 -172 178 -220 269 -25 46 -25 46
-6 79 37 64 146 196 208 253 177 162 405 276 634 320 120 22 393 14 499 -15z"/>
<path d="M3530 1401 c-76 -24 -96 -37 -158 -95 -62 -58 -105 -137 -127 -228
-40 -172 1 -326 119 -443 241 -239 637 -146 736 173 84 272 -51 528 -315 597
-77 20 -186 18 -255 -4z"/>
</g>
</svg>
