<?xml version="1.0" standalone="no"?>
<!DOCTYPE svg PUBLIC "-//W3C//DTD SVG 20010904//EN"
 "http://www.w3.org/TR/2001/REC-SVG-20010904/DTD/svg10.dtd">
<svg version="1.0" xmlns="http://www.w3.org/2000/svg"
 width="512.000000pt" height="512.000000pt" viewBox="0 0 512.000000 512.000000"
 preserveAspectRatio="xMidYMid meet">

<g transform="translate(0.000000,512.000000) scale(0.100000,-0.100000)"
fill="#000000" stroke="none">
<path d="M2475 5078 c-300 -21 -579 -141 -795 -345 -360 -338 -490 -866 -334
-1348 85 -261 272 -529 472 -677 23 -17 42 -34 42 -38 0 -3 -35 -15 -77 -25
-43 -10 -129 -35 -191 -57 -603 -207 -1099 -642 -1372 -1203 -81 -166 -121
-275 -161 -444 -59 -248 -69 -356 -45 -472 22 -101 53 -157 130 -234 84 -84
176 -133 311 -166 112 -27 298 -29 490 -4 72 9 188 18 259 21 71 2 138 6 149
10 10 3 25 21 33 40 19 45 3 82 -46 106 -46 23 -183 24 -345 2 -171 -23 -421
-23 -504 0 -89 24 -155 60 -205 110 -65 65 -78 97 -84 207 -4 85 0 112 33 250
63 260 141 443 274 640 345 515 969 867 1707 964 272 36 794 28 1067 -16 71
-11 140 -18 153 -15 45 12 69 91 39 133 -16 22 -122 70 -218 98 l-58 17 78 51
c107 70 285 250 357 361 104 158 174 328 213 516 24 118 24 381 0 502 -52 259
-162 462 -345 640 -286 277 -631 403 -1027 376z m260 -199 c150 -26 334 -104
464 -196 293 -207 432 -492 418 -853 -7 -173 -37 -295 -112 -445 -160 -324
-439 -538 -795 -611 -112 -22 -331 -15 -443 15 -288 77 -564 305 -702 581
-116 234 -139 456 -74 719 108 434 475 750 931 801 82 9 223 4 313 -11z"/>
<path d="M3875 1870 c-273 -31 -327 -66 -448 -291 l-67 -126 -58 -17 c-160
-44 -301 -45 -682 0 -280 32 -506 30 -630 -6 -152 -44 -266 -123 -326 -226
-88 -150 -103 -344 -36 -468 65 -121 210 -217 387 -256 137 -30 395 -46 560
-34 l137 10 33 36 c47 51 55 111 24 175 -41 82 -56 86 -287 76 -351 -15 -514
9 -591 86 -45 45 -55 85 -41 159 12 65 29 99 72 138 79 75 187 104 389 104 75
0 207 -7 295 -16 201 -20 527 -20 646 1 202 35 254 75 344 261 79 166 91 176
229 198 190 30 394 40 528 27 121 -11 255 -39 305 -64 22 -10 28 -22 34 -62 4
-28 28 -106 53 -174 111 -301 124 -462 60 -761 -47 -220 -108 -328 -206 -363
-30 -11 -114 -20 -264 -28 -121 -6 -258 -13 -304 -16 -204 -11 -404 86 -479
233 -11 21 -25 66 -32 99 -15 73 -32 95 -76 95 -64 0 -79 -37 -60 -148 32
-185 167 -336 370 -416 129 -51 173 -56 537 -53 318 3 337 4 398 26 149 52
230 142 306 341 76 197 111 349 121 533 10 177 -45 504 -108 648 -29 63 -79
125 -111 135 -12 4 -40 22 -61 40 -56 48 -108 71 -216 95 -137 31 -518 35
-745 9z"/>
<path d="M4277 1200 c-78 -20 -143 -73 -171 -142 -19 -45 -21 -135 -4 -192 18
-59 99 -138 161 -155 58 -17 160 -10 204 13 137 70 176 264 79 390 -50 66
-181 107 -269 86z"/>
</g>
</svg>
