<?xml version="1.0" standalone="no"?>
<!DOCTYPE svg PUBLIC "-//W3C//DTD SVG 20010904//EN"
 "http://www.w3.org/TR/2001/REC-SVG-20010904/DTD/svg10.dtd">
<svg version="1.0" xmlns="http://www.w3.org/2000/svg"
 width="512.000000pt" height="512.000000pt" viewBox="0 0 512.000000 512.000000"
 preserveAspectRatio="xMidYMid meet">

<g transform="translate(0.000000,512.000000) scale(0.100000,-0.100000)"
fill="#000000" stroke="none">
<path d="M2769 4883 c-15 -2 -51 -19 -80 -36 -71 -42 -115 -114 -124 -200 -3
-34 -5 -368 -3 -742 l3 -680 24 -48 c13 -26 42 -63 64 -83 78 -66 64 -65 863
-62 715 3 719 3 759 25 53 28 99 78 124 133 20 44 21 62 21 770 l0 725 -24 50
c-12 28 -40 65 -61 84 -80 70 -33 66 -825 67 -393 1 -727 -1 -741 -3z m1463
-182 l33 -29 0 -711 0 -710 -29 -30 -30 -31 -714 0 -714 0 -29 29 -29 29 0
712 0 712 29 29 29 29 711 0 711 0 32 -29z"/>
<path d="M3012 4410 c-29 -27 -29 -83 -2 -110 19 -19 33 -20 223 -20 200 0
204 0 225 23 29 31 29 77 -1 105 -22 21 -32 22 -223 22 -188 0 -202 -1 -222
-20z"/>
<path d="M3016 4039 c-37 -29 -37 -89 0 -118 26 -21 37 -21 470 -21 308 0 451
3 468 11 35 16 52 61 37 98 -7 15 -24 33 -37 40 -17 8 -160 11 -468 11 -433 0
-444 0 -470 -21z"/>
<path d="M3010 3660 c-27 -27 -27 -83 2 -110 21 -20 33 -20 480 -20 l459 0 24
25 c30 30 32 64 4 99 l-20 26 -465 0 c-451 0 -465 -1 -484 -20z"/>
<path d="M1465 3960 c-95 -25 -138 -44 -216 -96 -133 -88 -234 -223 -287 -382
-22 -67 -26 -95 -26 -212 0 -126 2 -141 31 -223 40 -114 83 -185 163 -269 65
-68 67 -78 16 -78 -49 0 -196 -44 -285 -86 -268 -126 -467 -363 -543 -649 -29
-111 -38 -229 -38 -541 0 -300 5 -345 40 -364 12 -6 273 -10 694 -10 l676 0 0
-211 0 -211 29 -29 29 -29 225 0 226 0 3 -146 c3 -146 3 -146 31 -170 l28 -24
919 0 919 0 28 24 28 24 5 182 5 182 282 -196 c303 -211 326 -222 369 -175 18
20 19 48 19 779 0 731 -1 759 -19 779 -42 47 -66 36 -369 -174 l-282 -196 -5
183 -5 183 37 33 c57 51 135 175 160 255 34 105 32 265 -4 359 -52 139 -136
243 -253 313 -167 100 -375 107 -555 19 -91 -45 -204 -152 -244 -232 l-27 -54
-53 50 c-93 88 -205 132 -336 132 -120 0 -229 -38 -309 -107 l-39 -32 -55 30
c-76 41 -198 85 -277 99 -126 22 -118 17 -77 51 87 72 178 225 214 359 23 87
22 262 -1 350 -68 251 -265 447 -514 511 -100 25 -260 25 -357 -1z m365 -162
c227 -83 370 -288 370 -529 0 -217 -117 -404 -312 -498 -162 -79 -322 -79
-483 -2 -288 137 -400 474 -255 762 59 117 188 227 313 268 88 28 101 30 207
26 69 -2 113 -10 160 -27z m2102 -1109 c131 -44 229 -144 273 -278 13 -40 16
-76 13 -146 -3 -79 -8 -101 -36 -157 -41 -83 -117 -160 -201 -201 -62 -30 -71
-32 -181 -32 -111 0 -118 1 -185 34 -253 125 -318 459 -128 662 26 28 66 63
88 77 98 62 244 79 357 41z m-1727 -157 c44 -12 113 -38 154 -57 66 -32 73
-37 66 -58 -37 -116 -46 -166 -42 -237 7 -96 31 -170 83 -247 l41 -61 -128 -4
c-177 -4 -173 0 -177 -193 l-3 -144 -231 -3 -230 -3 -24 -28 c-23 -27 -24 -35
-24 -163 l0 -134 -315 0 -314 0 -3 261 c-3 260 -3 261 -27 280 -32 26 -77 24
-106 -6 l-25 -24 0 -256 0 -255 -231 0 -231 0 5 333 c4 365 7 383 72 523 112
244 334 425 585 478 116 24 109 24 580 22 424 -2 449 -3 525 -24z m820 -17
c72 -35 146 -116 174 -190 19 -49 22 -74 19 -136 -8 -134 -80 -239 -204 -296
-49 -22 -66 -24 -147 -21 -72 2 -102 8 -137 26 -61 32 -126 96 -158 157 -24
45 -27 61 -27 150 0 85 4 107 24 148 44 90 134 163 228 187 63 16 169 4 228
-25z m365 -647 c0 -5 -31 -8 -70 -8 -38 0 -70 2 -70 5 0 2 15 25 33 51 l32 46
37 -44 c21 -23 38 -46 38 -50z m610 -818 l0 -660 -820 0 -820 0 0 660 0 660
820 0 820 0 0 -660z m680 -6 l0 -576 -62 44 c-35 25 -152 106 -260 182 l-198
137 0 217 0 218 253 176 c138 97 255 177 260 177 4 1 7 -258 7 -575z m-2480 6
l0 -320 -175 0 -175 0 0 320 0 320 175 0 175 0 0 -320z"/>
<path d="M2685 1555 l-25 -24 0 -481 0 -481 25 -24 c13 -14 35 -25 49 -25 39
0 841 467 855 497 16 35 14 49 -11 77 -31 34 -817 486 -846 486 -13 0 -34 -11
-47 -25z m413 -350 c144 -82 262 -152 262 -155 0 -7 -526 -310 -539 -310 -8 0
-11 92 -11 311 0 256 2 310 14 307 7 -2 131 -70 274 -153z"/>
</g>
</svg>
