<?xml version="1.0" standalone="no"?>
<!DOCTYPE svg PUBLIC "-//W3C//DTD SVG 20010904//EN"
 "http://www.w3.org/TR/2001/REC-SVG-20010904/DTD/svg10.dtd">
<svg version="1.0" xmlns="http://www.w3.org/2000/svg"
 width="270.000000pt" height="270.000000pt" viewBox="0 0 270.000000 270.000000"
 preserveAspectRatio="xMidYMid meet">

<g transform="translate(0.000000,270.000000) scale(0.100000,-0.100000)"
fill="#000000" stroke="none">
<path d="M50 2465 l0 -185 185 0 185 0 0 185 0 185 -185 0 -185 0 0 -185z
m320 -5 l0 -130 -130 0 -130 0 0 130 0 130 130 0 130 0 0 -130z"/>
<path d="M160 2460 l0 -80 80 0 80 0 0 80 0 80 -80 0 -80 0 0 -80z"/>
<path d="M480 2620 c0 -25 4 -30 25 -30 23 0 25 -3 25 -50 0 -47 -2 -50 -25
-50 -21 0 -25 -5 -25 -30 0 -25 4 -30 25 -30 23 0 25 -3 25 -50 0 -47 -2 -50
-25 -50 -20 0 -25 -5 -25 -25 0 -20 5 -25 25 -25 20 0 25 5 25 25 0 20 5 25
25 25 24 0 25 -3 25 -55 l0 -55 -50 0 -50 0 0 -50 0 -50 -80 0 c-79 0 -80 0
-80 25 0 23 3 25 50 25 47 0 50 2 50 25 0 25 -1 25 -80 25 -79 0 -80 0 -80
-25 0 -20 -5 -25 -25 -25 -20 0 -25 5 -25 25 0 20 -5 25 -25 25 -20 0 -25 -5
-25 -25 0 -24 -3 -25 -55 -25 -52 0 -55 -1 -55 -25 0 -24 3 -25 55 -25 l55 0
0 -55 0 -55 -55 0 c-52 0 -55 -1 -55 -25 0 -20 5 -25 25 -25 21 0 25 -5 25
-30 0 -25 -4 -30 -25 -30 -23 0 -25 -3 -25 -50 0 -49 1 -50 30 -50 29 0 30 1
30 50 0 47 2 50 25 50 24 0 25 -2 25 -74 0 -74 0 -75 -27 -78 -41 -4 -41 -52
-1 -56 22 -3 28 -9 28 -28 0 -19 5 -24 25 -24 20 0 25 -5 25 -25 0 -20 5 -25
25 -25 21 0 25 -5 25 -29 0 -28 -2 -29 -50 -29 -49 -1 -50 0 -50 29 0 24 -4
29 -25 29 -20 0 -25 5 -25 25 0 21 -5 25 -30 25 -25 0 -30 -4 -30 -25 0 -20 5
-25 25 -25 21 0 25 -5 25 -30 0 -25 -4 -30 -25 -30 -20 0 -25 -5 -25 -25 0
-20 5 -25 25 -25 20 0 25 -5 25 -25 0 -21 5 -25 30 -25 25 0 30 -4 30 -25 0
-24 -3 -25 -55 -25 l-56 0 3 -107 c3 -102 4 -108 25 -111 14 -2 23 -11 25 -25
3 -20 9 -22 81 -25 74 -3 77 -4 77 -27 0 -24 -2 -25 -80 -25 l-80 0 0 -30 c0
-25 -4 -30 -25 -30 -23 0 -25 -3 -25 -50 0 -49 1 -50 30 -50 29 0 30 1 30 50
0 47 2 50 25 50 23 0 25 -3 25 -50 0 -47 2 -50 25 -50 20 0 25 -5 25 -25 0
-24 3 -25 56 -25 54 0 55 0 52 -28 -2 -21 -9 -28 -30 -30 -22 -3 -28 -9 -28
-28 0 -22 3 -24 55 -24 52 0 55 -1 55 -25 0 -20 5 -25 25 -25 21 0 25 -5 25
-30 0 -29 -1 -30 -50 -30 -49 0 -50 1 -50 31 0 27 -3 30 -27 27 -22 -2 -28 -8
-28 -28 0 -20 6 -26 28 -28 21 -3 27 -9 27 -28 0 -22 4 -24 50 -24 47 0 50 2
50 25 0 24 3 25 55 25 52 0 55 -1 55 -25 0 -20 -5 -25 -25 -25 -20 0 -25 -5
-25 -25 0 -24 -3 -25 -55 -25 -52 0 -55 -1 -55 -25 0 -24 3 -25 55 -25 54 0
55 0 55 -30 0 -25 4 -30 25 -30 20 0 25 -5 25 -25 0 -20 -5 -25 -25 -25 -24 0
-25 -3 -25 -55 0 -52 1 -55 25 -55 20 0 25 -5 25 -25 0 -20 -5 -25 -25 -25
-20 0 -25 -5 -25 -25 0 -20 5 -25 25 -25 24 0 25 -3 25 -56 l0 -55 53 3 c45 3
52 6 55 26 3 21 8 22 77 22 69 0 74 -1 77 -22 2 -17 11 -24 31 -26 23 -3 27 0
27 22 0 21 5 26 25 26 21 0 25 5 25 30 0 25 4 30 25 30 20 0 25 5 25 25 0 24
3 25 55 25 l55 0 0 -56 c0 -54 -1 -55 -27 -54 -70 5 -83 1 -83 -25 0 -24 3
-25 55 -25 52 0 55 1 55 25 0 23 3 24 78 27 76 3 77 3 80 31 3 23 0 27 -22 27
-21 0 -26 5 -26 25 0 21 -5 25 -30 25 -25 0 -30 4 -30 25 0 24 3 25 55 25 52
0 55 -1 55 -25 0 -20 5 -25 25 -25 24 0 25 -3 25 -55 l0 -55 55 0 c52 0 55 -1
55 -25 0 -20 5 -25 25 -25 20 0 25 5 25 25 0 20 5 25 25 25 20 0 25 -5 25 -25
0 -24 3 -25 55 -25 52 0 55 1 55 25 0 23 3 25 49 25 44 0 50 -3 53 -23 3 -22
6 -22 161 -25 l157 -3 0 56 c0 54 0 55 30 55 25 0 30 4 30 25 0 21 -5 25 -30
25 -25 0 -30 4 -30 24 0 19 6 25 28 28 21 2 28 9 30 31 3 25 6 27 53 27 48 0
49 -1 49 -30 0 -25 4 -30 25 -30 20 0 25 -5 25 -25 0 -20 -5 -25 -25 -25 -20
0 -25 -5 -25 -25 0 -25 1 -25 80 -25 l80 0 0 -56 0 -55 53 3 c45 3 52 6 55 25
3 17 -2 22 -25 25 -22 2 -29 9 -31 30 -3 25 0 28 27 28 30 0 31 1 31 50 0 47
2 50 25 50 20 0 25 -5 25 -25 0 -20 5 -25 25 -25 25 0 25 -1 25 -80 l0 -80 55
0 c52 0 55 1 55 25 0 20 -5 25 -25 25 -21 0 -25 5 -25 30 0 25 4 30 25 30 20
0 25 5 25 25 0 20 -5 25 -25 25 -34 0 -37 47 -2 52 16 2 23 11 25 31 3 27 2
27 -52 27 -56 0 -56 0 -56 -30 0 -25 -4 -30 -25 -30 -21 0 -25 5 -25 30 0 25
-4 30 -25 30 l-25 0 0 105 0 105 -30 0 c-25 0 -30 4 -30 24 0 19 6 25 28 28
19 2 28 9 30 25 3 17 -2 22 -25 25 l-28 3 -3 108 c-3 106 -3 107 -27 107 -23
0 -25 4 -25 50 0 47 2 50 25 50 20 0 25 5 25 25 0 20 5 25 25 25 23 0 25 -3
25 -50 0 -49 1 -50 30 -50 25 0 30 -4 30 -25 0 -20 5 -25 25 -25 21 0 25 -5
25 -31 l0 -30 53 3 c48 3 52 5 55 31 3 23 0 27 -22 27 -21 0 -26 5 -26 25 0
20 5 25 25 25 l25 0 0 105 0 105 -25 0 c-34 0 -37 47 -2 52 16 2 23 11 25 31
3 23 0 27 -22 27 -24 0 -26 3 -26 50 0 47 2 50 25 50 21 0 25 5 25 31 0 27 -3
30 -27 27 -22 -2 -29 -9 -31 -30 -3 -22 -9 -28 -28 -28 l-24 0 0 -160 0 -160
25 0 c20 0 25 -5 25 -25 0 -20 -5 -25 -25 -25 -20 0 -25 -5 -25 -25 0 -20 -5
-25 -25 -25 -23 0 -25 3 -25 50 0 47 -2 50 -25 50 -21 0 -25 5 -25 30 0 25 4
30 25 30 23 0 25 3 25 50 0 56 6 53 -107 51 -52 -1 -53 -1 -53 29 l0 30 80 0
80 0 0 50 c0 47 -2 50 -25 50 -21 0 -25 5 -25 30 0 25 4 30 25 30 20 0 25 5
25 25 0 25 1 25 80 25 l80 0 0 50 c0 47 -2 50 -25 50 -21 0 -25 5 -25 30 0 25
4 30 25 30 25 0 25 1 25 80 0 79 0 80 -25 80 -20 0 -25 5 -25 25 0 20 5 25 25
25 25 0 25 1 25 80 0 79 0 80 -25 80 -20 0 -25 5 -25 25 0 21 -5 25 -30 25
-25 0 -30 -4 -30 -25 0 -20 5 -25 25 -25 21 0 25 -5 25 -30 0 -29 -1 -30 -50
-30 -49 0 -50 1 -50 30 0 25 -4 30 -25 30 -23 0 -25 3 -25 49 0 44 3 50 23 53
16 2 23 11 25 31 3 21 9 27 28 27 19 0 24 5 24 25 0 20 -5 25 -25 25 -20 0
-25 5 -25 25 0 21 -5 25 -30 25 -25 0 -30 -4 -30 -25 0 -21 5 -25 30 -25 25 0
30 -4 30 -25 0 -24 -3 -25 -55 -25 l-55 0 0 -55 c0 -52 -1 -55 -25 -55 -20 0
-25 5 -25 25 0 20 -5 25 -25 25 -25 0 -25 1 -25 80 l0 80 -30 0 c-30 0 -30 1
-30 55 0 52 -1 55 -25 55 -24 0 -25 -3 -25 -55 0 -52 1 -55 25 -55 25 0 25 -1
25 -80 0 -79 0 -80 -25 -80 -24 0 -25 3 -25 55 0 52 -1 55 -25 55 -20 0 -25 5
-25 25 0 20 -5 25 -25 25 -21 0 -25 5 -25 30 0 25 4 30 25 30 23 0 25 3 25 50
l0 50 -55 0 c-52 0 -55 1 -55 25 0 23 -3 25 -50 25 -49 0 -50 1 -50 30 0 25 4
30 25 30 20 0 25 5 25 25 0 20 5 25 25 25 20 0 25 5 25 25 0 20 5 25 25 25 20
0 25 -5 25 -25 0 -21 5 -25 30 -25 30 0 30 -1 30 -55 0 -52 1 -55 25 -55 21 0
25 5 25 30 0 25 4 30 25 30 25 0 25 1 25 80 0 79 0 80 -25 80 -21 0 -25 -5
-25 -30 0 -29 -1 -30 -49 -30 -47 0 -50 2 -53 28 -2 21 -9 28 -30 30 -25 3
-28 0 -28 -27 0 -26 -4 -31 -25 -31 -21 0 -25 5 -25 30 l0 30 -105 0 -105 0 0
-30 c0 -29 1 -30 50 -30 47 0 50 -2 50 -25 0 -20 -5 -25 -25 -25 -20 0 -25 -5
-25 -25 0 -23 -3 -25 -50 -25 -47 0 -50 2 -50 25 0 21 -5 25 -30 25 -25 0 -30
4 -30 24 0 19 6 25 28 28 21 2 27 8 27 28 0 25 0 25 -108 28 l-108 3 3 -28 c2
-20 9 -29 26 -31 34 -5 31 -52 -3 -52 -20 0 -25 -5 -25 -25 0 -20 -5 -25 -25
-25 -21 0 -25 -5 -25 -30 0 -30 0 -30 -52 -27 -50 2 -53 4 -56 30 -3 24 0 27
27 27 26 0 31 4 31 25 0 21 -5 25 -30 25 -25 0 -30 4 -30 24 0 19 6 25 28 28
21 2 28 9 30 31 3 24 0 27 -27 27 -28 0 -31 -3 -31 -30 0 -29 -1 -30 -50 -30
-49 0 -50 1 -50 31 0 27 -3 30 -27 27 -22 -2 -28 -8 -28 -28 0 -20 6 -26 28
-28 25 -3 27 -6 27 -53 l0 -49 -55 0 c-52 0 -55 1 -55 25 0 20 -5 25 -25 25
-24 0 -25 3 -25 56 0 54 0 55 -27 52 -26 -3 -28 -7 -31 -55 -3 -49 -5 -53 -28
-53 -19 0 -24 5 -24 25 0 20 -5 25 -25 25 -21 0 -25 5 -25 30 0 25 -4 30 -25
30 -24 0 -25 -3 -25 -55 0 -52 -1 -55 -25 -55 -20 0 -25 5 -25 25 0 21 -5 25
-30 25 -27 0 -30 3 -30 30 l0 30 -130 0 -130 0 0 -30z m260 -55 c0 -20 5 -25
25 -25 20 0 25 -5 25 -25 0 -20 -5 -25 -25 -25 -20 0 -25 5 -25 25 0 20 -5 25
-25 25 -24 0 -25 -3 -25 -55 0 -52 1 -55 25 -55 20 0 25 -5 25 -25 0 -20 -5
-25 -25 -25 -25 0 -25 -1 -25 -80 0 -79 0 -80 -25 -80 l-25 0 0 105 0 105 -55
0 c-54 0 -55 0 -55 30 0 25 4 30 25 30 20 0 25 5 25 25 0 24 3 25 55 25 52 0
55 1 55 25 0 20 5 25 25 25 20 0 25 -5 25 -25z m1220 0 c0 -20 -5 -25 -25 -25
-20 0 -25 5 -25 25 0 20 5 25 25 25 20 0 25 -5 25 -25z m-1010 -50 c0 -20 -5
-25 -25 -25 -24 0 -25 -3 -25 -55 0 -52 1 -55 25 -55 20 0 25 5 25 25 0 24 3
25 55 25 54 0 55 0 55 30 0 25 4 30 25 30 21 0 25 -5 25 -30 0 -25 -4 -30 -25
-30 -23 0 -25 -3 -25 -50 0 -47 2 -50 25 -50 20 0 25 5 25 25 0 20 5 25 25 25
20 0 25 -5 25 -25 0 -20 -5 -25 -25 -25 -20 0 -25 -5 -25 -25 0 -21 5 -25 30
-25 25 0 30 4 30 25 0 20 5 25 25 25 24 0 25 -3 25 -55 l0 -55 -80 0 -80 0 0
-50 c0 -47 2 -50 25 -50 20 0 25 5 25 25 0 24 3 25 56 25 l55 0 -3 -52 c-3
-46 -6 -53 -25 -56 -17 -3 -22 2 -25 25 -2 22 -9 29 -31 31 -26 3 -28 1 -25
-25 2 -20 9 -29 25 -31 14 -2 23 -11 25 -25 2 -16 11 -23 31 -25 23 -3 27 0
27 22 0 24 3 26 50 26 47 0 50 -2 50 -25 0 -21 5 -25 30 -25 25 0 30 -4 30
-25 0 -20 5 -25 25 -25 21 0 25 -5 25 -30 0 -25 4 -30 25 -30 25 0 25 1 25 80
l0 80 -52 1 c-110 2 -103 -2 -106 57 l-3 52 30 0 c26 0 31 -4 31 -25 0 -20 5
-25 25 -25 20 0 25 5 25 25 0 20 5 25 25 25 24 0 25 -3 25 -55 0 -52 2 -55 24
-55 18 0 25 -6 28 -22 2 -17 11 -24 31 -26 23 -3 27 0 27 22 0 24 3 26 49 26
44 0 50 -3 53 -22 2 -17 11 -24 31 -26 21 -3 27 -9 27 -28 0 -19 5 -24 25 -24
l25 0 0 105 0 105 25 0 c24 0 25 3 25 55 0 52 -1 55 -25 55 -23 0 -25 3 -25
50 0 47 -2 50 -25 50 -23 0 -25 -3 -25 -50 0 -47 -2 -50 -25 -50 -20 0 -25 5
-25 25 0 21 -5 25 -30 25 -25 0 -30 -4 -30 -25 0 -20 -5 -25 -25 -25 -20 0
-25 5 -25 25 0 21 -5 25 -30 25 -25 0 -30 -4 -30 -25 0 -20 -5 -25 -25 -25
-23 0 -25 3 -25 49 0 47 2 50 28 53 19 2 28 9 30 26 5 34 52 31 52 -3 0 -20 5
-25 25 -25 20 0 25 5 25 25 0 34 47 37 52 3 2 -17 11 -24 31 -26 23 -3 27 0
27 22 0 21 5 26 25 26 21 0 25 5 25 30 0 25 4 30 25 30 20 0 25 5 25 25 0 20
5 25 25 25 20 0 25 -5 25 -25 0 -20 -5 -25 -25 -25 -21 0 -25 -5 -25 -30 0
-25 -4 -30 -25 -30 -20 0 -25 -5 -25 -25 0 -23 3 -25 50 -25 47 0 50 -2 50
-25 0 -20 -5 -25 -25 -25 -20 0 -25 -5 -25 -25 0 -20 5 -25 25 -25 l25 0 0
-110 0 -110 -25 0 c-20 0 -25 -5 -25 -25 0 -24 3 -25 55 -25 l55 0 0 55 c0 52
2 55 24 55 19 0 25 -6 28 -27 2 -22 8 -28 28 -28 23 0 25 4 28 53 3 48 5 52
28 52 23 0 24 -3 24 -55 0 -52 1 -55 25 -55 20 0 25 -5 25 -25 0 -24 3 -25 55
-25 52 0 55 -1 55 -25 0 -23 3 -25 50 -25 49 0 50 -1 50 -30 0 -25 4 -30 25
-30 20 0 25 -5 25 -25 0 -20 -5 -25 -25 -25 -20 0 -25 5 -25 25 0 20 -5 25
-25 25 -20 0 -25 -5 -25 -25 0 -20 -5 -25 -25 -25 -20 0 -25 -5 -25 -25 0 -20
5 -25 25 -25 20 0 25 -5 25 -25 0 -23 3 -25 49 -25 47 0 50 -2 53 -27 2 -22 9
-29 31 -31 21 -3 27 -9 27 -28 0 -19 5 -24 25 -24 25 0 25 -1 25 -80 0 -79 0
-80 -25 -80 -20 0 -25 -5 -25 -25 0 -20 -5 -25 -25 -25 -20 0 -25 5 -25 25 0
21 -5 25 -30 25 -25 0 -30 4 -30 24 0 23 4 25 53 28 48 3 52 5 55 31 3 23 0
27 -22 27 -21 0 -26 5 -26 25 0 21 -5 25 -30 25 -25 0 -30 -4 -30 -25 0 -23
-3 -25 -50 -25 -49 0 -50 -1 -50 -30 0 -25 4 -30 25 -30 20 0 25 -5 25 -25 0
-25 -1 -25 -80 -25 -79 0 -80 0 -80 -25 0 -24 -3 -25 -55 -25 -52 0 -55 -1
-55 -25 0 -21 5 -25 30 -25 27 0 30 -3 30 -30 0 -25 4 -30 25 -30 20 0 25 -5
25 -25 0 -20 -5 -25 -25 -25 -20 0 -25 -5 -25 -25 0 -25 1 -25 81 -25 l80 0
-3 -27 c-2 -22 -9 -29 -30 -31 -22 -3 -28 -9 -28 -28 0 -20 5 -24 30 -24 25 0
30 4 30 25 0 20 5 25 25 25 20 0 25 -5 25 -25 0 -20 -5 -25 -25 -25 -20 0 -25
-5 -25 -25 0 -24 -3 -25 -55 -25 -54 0 -55 0 -55 -30 0 -25 4 -30 25 -30 20 0
25 -5 25 -25 0 -21 5 -25 30 -25 25 0 30 -4 30 -25 0 -25 -1 -25 -80 -25 -79
0 -80 0 -80 -25 0 -20 5 -25 25 -25 24 0 25 -3 25 -55 l0 -55 80 0 80 0 0 -55
c0 -52 1 -55 25 -55 20 0 25 -5 25 -25 0 -20 -5 -25 -25 -25 -20 0 -25 5 -25
25 0 20 -5 25 -25 25 -23 0 -25 -3 -25 -50 l0 -50 -55 0 -55 0 0 -55 c0 -52
-1 -55 -25 -55 -21 0 -25 5 -25 31 0 27 -3 30 -27 27 -28 -3 -28 -4 -31 -80
l-3 -78 -49 0 c-47 0 -50 2 -50 25 0 20 -5 25 -24 25 -23 0 -25 4 -28 53 -3
48 -5 52 -30 55 l-28 3 0 -80 0 -81 -75 0 -75 0 0 50 c0 49 -1 50 -30 50 -27
0 -30 3 -30 30 0 25 -4 30 -25 30 -20 0 -25 5 -25 25 0 20 -5 25 -25 25 -20 0
-25 5 -25 25 0 23 3 25 50 25 47 0 50 2 50 25 0 20 5 25 25 25 23 0 25 -3 25
-50 0 -47 -2 -50 -25 -50 -20 0 -25 -5 -25 -25 0 -25 1 -25 80 -25 l80 0 0 50
c0 47 -2 50 -25 50 -20 0 -25 5 -25 25 0 20 5 25 25 25 20 0 25 -5 25 -25 0
-20 5 -25 25 -25 20 0 25 -5 25 -25 0 -24 3 -25 55 -25 l55 0 0 -80 c0 -79 0
-80 25 -80 l25 0 0 130 0 130 -52 1 c-103 2 -103 2 -106 31 l-3 28 80 0 c80 0
81 0 81 25 0 21 5 25 30 25 l30 0 0 80 c0 79 0 80 25 80 20 0 25 5 25 25 0 20
-5 25 -25 25 -34 0 -37 47 -2 52 16 2 23 11 25 31 3 24 0 27 -27 27 -28 0 -31
-3 -31 -31 0 -26 -3 -30 -22 -27 -17 2 -24 11 -26 31 -3 21 -9 27 -28 27 -20
0 -24 -5 -24 -30 0 -25 4 -30 25 -30 20 0 25 -5 25 -25 0 -20 -5 -25 -25 -25
-20 0 -25 -5 -25 -25 0 -20 5 -25 25 -25 20 0 25 -5 25 -25 0 -20 -5 -25 -25
-25 -21 0 -25 -5 -25 -30 0 -27 -3 -30 -30 -30 -25 0 -30 -4 -30 -25 0 -20 -5
-25 -25 -25 -20 0 -25 5 -25 25 0 20 -5 25 -25 25 -23 0 -25 -3 -25 -50 0 -47
-2 -50 -25 -50 -23 0 -25 3 -25 50 0 47 2 50 25 50 21 0 25 5 25 30 0 25 -4
30 -24 30 -19 0 -25 -6 -28 -28 l-3 -27 -102 -2 -103 -2 0 30 c0 24 4 29 25
29 20 0 25 5 25 25 0 24 -3 25 -56 25 l-55 0 3 -52 c3 -46 6 -53 26 -56 21 -3
22 -7 22 -108 l0 -104 -50 0 c-47 0 -50 -2 -50 -25 0 -24 -3 -25 -55 -25 -52
0 -55 1 -55 25 0 20 -5 25 -25 25 -20 0 -25 -5 -25 -25 0 -20 -5 -25 -25 -25
-20 0 -25 5 -25 25 0 20 5 25 25 25 24 0 25 3 25 55 0 52 1 55 25 55 20 0 25
5 25 25 0 24 3 25 55 25 l55 0 0 80 0 80 -135 0 -135 0 0 -25 c0 -25 1 -25 80
-25 l80 0 0 -30 c0 -29 -1 -30 -50 -30 -47 0 -50 -2 -50 -25 0 -20 -5 -25 -25
-25 -20 0 -25 5 -25 25 0 27 -4 28 -107 25 -53 -1 -53 -1 -53 29 0 30 1 31 50
31 47 0 50 2 50 25 l0 25 -105 0 -105 0 0 -55 0 -55 50 0 c47 0 50 -2 50 -25
0 -25 1 -25 80 -25 79 0 80 0 80 -25 0 -21 5 -25 31 -25 27 0 30 -3 27 -27 -2
-22 -9 -29 -30 -31 -22 -3 -28 -9 -28 -28 0 -23 -2 -24 -74 -24 l-75 0 -3 52
c-3 49 -5 53 -30 56 l-28 3 0 -80 0 -81 105 0 105 0 0 -25 c0 -20 -5 -25 -25
-25 -24 0 -25 -3 -25 -55 0 -52 -1 -55 -25 -55 -20 0 -25 -5 -25 -25 0 -20 5
-25 25 -25 21 0 25 -5 25 -30 0 -29 -1 -30 -50 -30 l-50 0 0 55 c0 54 0 55
-30 55 -30 0 -30 -1 -30 -55 0 -52 -1 -55 -25 -55 -23 0 -25 -3 -25 -50 0 -46
-2 -50 -24 -50 -19 0 -25 -6 -28 -28 -2 -19 -9 -28 -25 -30 -20 -3 -23 1 -23
27 0 26 4 31 25 31 23 0 25 3 25 50 0 47 2 50 25 50 24 0 25 3 25 55 0 52 -1
55 -25 55 -20 0 -25 5 -25 25 0 25 -1 25 -80 25 l-80 0 0 55 c0 52 -1 55 -25
55 -20 0 -25 5 -25 25 0 21 -5 25 -30 25 -25 0 -30 -4 -30 -25 0 -20 5 -25 25
-25 20 0 25 -5 25 -25 0 -20 -5 -25 -25 -25 -20 0 -25 5 -25 25 0 20 -5 25
-25 25 -20 0 -25 -5 -25 -25 0 -20 -5 -25 -25 -25 -20 0 -25 5 -25 25 0 20 5
25 25 25 20 0 25 5 25 25 0 20 5 25 25 25 20 0 25 5 25 24 0 19 6 25 28 28 21
2 28 9 30 31 3 25 6 27 53 27 l49 0 0 50 c0 47 -2 50 -25 50 -20 0 -25 -5 -25
-25 0 -24 -3 -25 -55 -25 -52 0 -55 1 -55 25 0 23 -3 25 -50 25 -47 0 -50 -2
-50 -25 0 -20 5 -25 25 -25 20 0 25 -5 25 -25 0 -20 -5 -25 -25 -25 -20 0 -25
5 -25 25 0 24 -3 25 -55 25 -52 0 -55 1 -55 25 0 20 5 25 25 25 21 0 25 5 25
30 0 25 -4 30 -25 30 -20 0 -25 5 -25 25 0 20 5 25 25 25 20 0 25 5 25 25 0
23 -3 25 -50 25 -47 0 -50 -2 -50 -25 0 -24 -3 -25 -55 -25 l-55 0 0 50 c0 46
2 50 24 50 18 0 25 -6 28 -22 2 -17 11 -24 31 -26 27 -3 27 -2 27 52 0 53 1
56 25 56 20 0 25 5 25 25 0 25 1 25 80 25 l80 0 0 -55 0 -55 -52 3 c-50 2 -53
4 -56 30 -3 21 -9 27 -28 27 -20 0 -24 -5 -24 -30 0 -25 4 -30 25 -30 20 0 25
-5 25 -25 0 -25 1 -25 80 -25 78 0 80 1 80 24 0 19 6 25 28 28 21 2 28 9 30
30 3 22 9 28 28 28 22 0 24 -3 24 -55 l0 -55 -55 0 c-52 0 -55 -1 -55 -25 0
-20 5 -25 24 -25 23 0 25 -4 28 -53 3 -48 5 -52 31 -55 24 -3 27 0 27 27 0 26
4 31 25 31 l25 0 0 105 0 105 30 0 c29 0 30 1 30 50 l0 50 -55 0 c-54 0 -55 0
-55 30 0 25 -4 30 -25 30 -20 0 -25 5 -25 25 0 24 -3 25 -55 25 l-55 0 0 80
c0 79 0 80 25 80 20 0 25 -5 25 -25 0 -24 3 -25 55 -25 52 0 55 1 55 25 0 20
-5 25 -25 25 -20 0 -25 5 -25 25 0 24 -3 25 -55 25 -52 0 -55 1 -55 25 0 20
-5 25 -25 25 -20 0 -25 -5 -25 -25 0 -24 -3 -25 -55 -25 -52 0 -55 1 -55 25 0
20 -5 25 -25 25 -20 0 -25 -5 -25 -25 0 -20 -5 -25 -25 -25 -20 0 -25 5 -25
25 0 20 5 25 25 25 21 0 25 5 25 30 0 25 -4 30 -25 30 -20 0 -25 5 -25 25 0
21 -5 25 -30 25 -25 0 -30 4 -30 25 0 20 -5 25 -25 25 -21 0 -25 5 -25 30 l0
30 80 0 80 0 0 -30 c0 -25 4 -30 25 -30 21 0 25 5 25 30 0 25 4 30 25 30 20 0
25 5 25 25 0 20 -5 25 -25 25 -20 0 -25 5 -25 25 0 20 -5 25 -25 25 -24 0 -25
3 -25 55 l0 55 50 0 c47 0 50 2 50 25 0 23 -3 25 -50 25 -46 0 -50 2 -50 25 0
23 3 24 78 27 76 3 77 3 80 31 3 21 9 27 28 27 19 0 24 5 24 25 l0 25 105 0
105 0 0 25 c0 20 5 25 25 25 23 0 25 -3 25 -50 l0 -50 80 0 c79 0 80 0 80 25
0 21 5 25 30 25 25 0 30 4 30 25 0 20 5 25 25 25 24 0 25 3 25 55 0 52 -1 55
-25 55 -20 0 -25 5 -25 25 0 21 -5 25 -30 25 -25 0 -30 -4 -30 -25 0 -20 5
-25 25 -25 24 0 25 -3 25 -55 l0 -55 -50 0 c-47 0 -50 -2 -50 -25 0 -20 -5
-25 -25 -25 -20 0 -25 5 -25 25 0 20 5 25 25 25 21 0 25 5 25 30 0 25 -4 30
-25 30 -20 0 -25 5 -25 25 0 20 5 25 25 25 20 0 25 5 25 25 0 23 -3 25 -50 25
-46 0 -50 2 -50 24 0 18 6 25 23 28 16 2 23 11 25 31 3 21 9 27 28 27 19 0 24
5 24 25 0 20 5 25 25 25 20 0 25 -5 25 -25z m640 0 c0 -20 -5 -25 -25 -25 -20
0 -25 5 -25 25 0 20 5 25 25 25 20 0 25 -5 25 -25z m-370 -110 c0 -20 -5 -25
-25 -25 -20 0 -25 5 -25 25 0 20 5 25 25 25 20 0 25 -5 25 -25z m210 -105 l0
-80 -80 0 -80 0 0 80 0 80 80 0 80 0 0 -80z m580 55 c0 -20 5 -25 25 -25 20 0
25 -5 25 -25 0 -20 -5 -25 -25 -25 -24 0 -25 -3 -25 -55 0 -52 -1 -55 -25 -55
-24 0 -25 3 -25 55 0 52 -1 55 -25 55 -20 0 -25 5 -25 25 0 20 5 25 25 25 20
0 25 5 25 25 0 20 5 25 25 25 20 0 25 -5 25 -25z m-1220 -50 c0 -20 -5 -25
-25 -25 -20 0 -25 5 -25 25 0 20 5 25 25 25 20 0 25 -5 25 -25z m800 -110 c0
-20 -5 -25 -25 -25 -20 0 -25 5 -25 25 0 20 5 25 25 25 20 0 25 -5 25 -25z
m160 -50 c0 -20 -5 -25 -25 -25 -20 0 -25 5 -25 25 0 20 5 25 25 25 20 0 25
-5 25 -25z m-1432 -52 c-2 -20 -9 -29 -25 -31 -20 -3 -23 1 -23 27 0 27 4 31
26 31 22 0 25 -4 22 -27z m1270 0 c-2 -20 -9 -29 -25 -31 -20 -3 -23 1 -23 27
0 27 4 31 26 31 22 0 25 -4 22 -27z m-1328 -83 c0 -47 -2 -50 -25 -50 -23 0
-25 3 -25 50 0 47 2 50 25 50 23 0 25 -3 25 -50z m0 -135 c0 -20 -5 -25 -25
-25 -20 0 -25 5 -25 25 0 20 5 25 25 25 20 0 25 -5 25 -25z m2330 -50 c0 -23
-3 -25 -50 -25 -47 0 -50 2 -50 25 0 23 3 25 50 25 47 0 50 -2 50 -25z m0
-105 c0 -25 -4 -30 -25 -30 -21 0 -25 5 -25 30 0 25 4 30 25 30 21 0 25 -5 25
-30z m-2430 -215 c0 -23 3 -25 50 -25 47 0 50 -2 50 -25 0 -23 -3 -25 -50 -25
-47 0 -50 2 -50 25 0 20 -5 25 -25 25 -20 0 -25 5 -25 25 0 20 5 25 25 25 20
0 25 -5 25 -25z m320 -155 l0 -80 -80 0 -80 0 0 80 0 80 80 0 80 0 0 -80z
m1900 0 l0 -80 -80 0 -80 0 0 80 0 80 80 0 80 0 0 -80z m-2220 -55 c0 -20 -5
-25 -25 -25 -20 0 -25 5 -25 25 0 20 5 25 25 25 20 0 25 -5 25 -25z m100 -25
c0 -49 1 -50 31 -50 27 0 30 -3 27 -27 -3 -26 -6 -28 -53 -28 l-50 0 -3 78
c-3 77 -3 77 23 77 23 0 25 -3 25 -50z m218 -77 c-3 -26 -6 -28 -55 -30 -53
-3 -53 -3 -53 27 0 30 1 30 56 30 54 0 55 0 52 -27z m1952 -108 c0 -20 -5 -25
-25 -25 -20 0 -25 5 -25 25 0 20 5 25 25 25 20 0 25 -5 25 -25z m-740 -370 c0
-20 -5 -25 -25 -25 -20 0 -25 5 -25 25 0 20 5 25 25 25 20 0 25 -5 25 -25z
m-470 -265 c0 -25 -4 -30 -25 -30 -21 0 -25 5 -25 30 0 25 4 30 25 30 21 0 25
-5 25 -30z m210 -50 l0 -80 -80 0 -80 0 0 80 0 80 80 0 80 0 0 -80z m102 53
c2 -22 9 -29 31 -31 21 -3 27 -9 27 -28 0 -19 5 -24 25 -24 24 0 25 -3 25 -55
l0 -55 160 0 160 0 0 -25 c0 -20 5 -25 25 -25 20 0 25 -5 25 -25 0 -20 -5 -25
-25 -25 -20 0 -25 5 -25 25 0 21 -5 25 -30 25 -30 0 -30 0 -30 -56 0 -52 -1
-55 -22 -52 -17 2 -24 11 -26 31 -3 21 -9 27 -28 27 -19 0 -24 5 -24 25 0 24
-3 25 -55 25 -52 0 -55 -1 -55 -25 0 -20 -5 -25 -25 -25 -23 0 -25 3 -25 50 0
47 -2 50 -25 50 -24 0 -25 3 -25 55 l0 55 -55 0 -55 0 0 55 c0 52 2 55 24 55
19 0 25 -6 28 -27z m848 -53 l0 -80 -80 0 -80 0 0 80 0 80 80 0 80 0 0 -80z
m-1750 -55 c0 -20 -5 -25 -25 -25 -21 0 -25 -5 -25 -30 0 -30 1 -30 55 -30 54
0 55 0 55 30 0 25 4 30 25 30 20 0 25 5 25 25 0 20 5 25 25 25 20 0 25 -5 25
-25 0 -21 5 -25 31 -25 27 0 30 -3 27 -27 -2 -22 -9 -29 -30 -31 -26 -3 -28
-6 -28 -53 l0 -49 -75 0 c-73 0 -75 1 -75 25 0 21 -5 25 -30 25 -25 0 -30 -4
-30 -25 0 -20 5 -25 25 -25 21 0 25 -5 25 -31 0 -26 -3 -30 -22 -27 -17 2 -24
11 -26 31 -3 21 -9 27 -28 27 -19 0 -24 5 -24 25 0 20 5 25 25 25 20 0 25 5
25 25 0 20 -5 25 -25 25 -21 0 -25 5 -25 30 0 25 4 30 25 30 20 0 25 5 25 25
0 20 5 25 25 25 20 0 25 -5 25 -25z m850 -110 c0 -24 3 -25 56 -25 l55 0 -3
-52 -3 -53 -50 0 -50 0 -3 53 c-3 48 -5 52 -28 52 -23 0 -24 -3 -24 -55 0 -52
-1 -55 -25 -55 -21 0 -25 5 -25 30 0 27 -3 30 -30 30 -25 0 -30 4 -30 25 0 21
5 25 30 25 25 0 30 4 30 25 0 23 3 25 50 25 47 0 50 -2 50 -25z m268 -102 c-2
-20 -9 -29 -25 -31 -20 -3 -23 1 -23 27 0 27 4 31 26 31 22 0 25 -4 22 -27z"/>
<path d="M900 2305 c0 -20 5 -25 25 -25 20 0 25 5 25 25 0 20 -5 25 -25 25
-20 0 -25 -5 -25 -25z"/>
<path d="M582 2093 c2 -20 9 -29 26 -31 34 -5 31 -52 -3 -52 -24 0 -25 -3 -25
-55 0 -52 -1 -55 -25 -55 -20 0 -25 -5 -25 -25 0 -24 -3 -25 -55 -25 -52 0
-55 1 -55 25 0 20 -5 25 -25 25 -20 0 -25 -5 -25 -25 0 -20 5 -25 25 -25 20 0
25 -5 25 -25 0 -21 5 -25 30 -25 25 0 30 -4 30 -25 0 -20 5 -25 25 -25 24 0
25 -3 25 -55 0 -52 -1 -55 -25 -55 -20 0 -25 5 -25 24 0 19 -6 25 -27 28 -57
6 -83 -3 -83 -28 0 -19 -5 -24 -25 -24 -20 0 -25 -5 -25 -25 0 -20 5 -25 25
-25 21 0 25 -5 25 -30 0 -30 1 -30 55 -30 54 0 55 0 55 30 0 25 4 30 25 30 20
0 25 5 25 25 0 20 5 25 25 25 25 0 25 1 25 80 0 79 0 80 -25 80 -20 0 -25 5
-25 25 0 23 3 25 50 25 47 0 50 -2 50 -25 0 -21 5 -25 30 -25 25 0 30 -4 30
-25 0 -24 3 -25 55 -25 52 0 55 1 55 25 0 20 5 25 25 25 20 0 25 5 25 25 l0
25 105 0 105 0 0 25 c0 20 5 25 25 25 21 0 25 5 25 30 0 25 -4 30 -25 30 -20
0 -25 5 -25 25 0 20 -5 25 -25 25 -20 0 -25 5 -25 25 0 21 -5 25 -30 25 -25 0
-30 -4 -30 -25 0 -20 -5 -25 -25 -25 -20 0 -25 5 -25 24 0 25 -26 34 -82 28
-22 -3 -28 -9 -28 -28 0 -22 -4 -24 -50 -24 -47 0 -50 2 -50 25 0 20 5 25 25
25 21 0 25 5 25 30 0 25 -4 30 -24 30 -19 0 -25 -6 -28 -27 -2 -20 -9 -29 -25
-31 -17 -3 -22 2 -25 25 -2 22 -9 29 -31 31 -26 3 -28 1 -25 -25z m108 -108
c0 -20 -5 -25 -25 -25 -20 0 -25 5 -25 25 0 20 5 25 25 25 20 0 25 -5 25 -25z
m160 0 c0 -20 5 -25 25 -25 21 0 25 -5 25 -29 l0 -29 -80 0 -80 0 0 29 c0 26
4 29 30 29 25 0 30 4 30 25 0 20 5 25 25 25 20 0 25 -5 25 -25z m150 0 c0 -20
-5 -25 -25 -25 -20 0 -25 5 -25 25 0 20 5 25 25 25 20 0 25 -5 25 -25z m60
-55 c0 -25 -4 -30 -25 -30 -21 0 -25 5 -25 30 0 25 4 30 25 30 21 0 25 -5 25
-30z m-370 -55 c0 -20 -5 -25 -25 -25 -20 0 -25 5 -25 25 0 20 5 25 25 25 20
0 25 -5 25 -25z m100 -50 c0 -20 -5 -25 -25 -25 -20 0 -25 5 -25 25 0 20 5 25
25 25 20 0 25 -5 25 -25z m-370 -210 c0 -20 -5 -25 -25 -25 -20 0 -25 5 -25
25 0 20 5 25 25 25 20 0 25 -5 25 -25z"/>
<path d="M1220 1985 c0 -21 -5 -25 -31 -25 l-30 0 3 -52 c3 -49 5 -53 31 -56
23 -3 27 0 27 22 0 21 5 26 25 26 20 0 25 -5 25 -25 0 -25 1 -25 80 -25 79 0
80 0 80 25 0 27 -4 28 -107 26 l-53 -1 0 55 c0 52 -1 55 -25 55 -20 0 -25 -5
-25 -25z"/>
<path d="M1960 1985 c0 -24 -3 -25 -55 -25 l-55 0 0 -55 c0 -52 -1 -55 -25
-55 -20 0 -25 5 -25 25 0 20 -5 25 -25 25 -21 0 -25 5 -25 30 0 30 -1 30 -55
30 -54 0 -55 0 -55 -30 0 -25 -4 -30 -25 -30 -21 0 -25 5 -25 30 0 27 -3 30
-31 30 l-30 0 3 -52 3 -53 53 -3 c50 -3 52 -2 52 22 0 21 5 26 24 26 18 0 25
-6 28 -22 3 -20 10 -23 56 -26 l52 -3 0 -160 0 -159 105 0 105 0 0 -26 c0 -22
4 -25 28 -22 25 3 27 7 30 56 3 48 5 52 28 52 22 0 24 4 24 50 0 47 -2 50 -25
50 -21 0 -25 5 -25 30 0 25 4 30 25 30 20 0 25 5 25 25 0 20 5 25 25 25 24 0
25 -3 25 -55 0 -52 1 -55 25 -55 25 0 25 1 25 80 l0 80 -50 0 c-47 0 -50 -2
-50 -25 0 -20 -5 -25 -25 -25 -23 0 -25 3 -25 49 0 47 -2 50 -27 53 -26 3 -28
7 -31 56 -3 48 -5 52 -28 52 -19 0 -24 -5 -24 -25z m50 -110 c0 -20 -5 -25
-25 -25 -20 0 -25 -5 -25 -25 0 -24 -3 -25 -55 -25 -52 0 -55 1 -55 25 0 24 3
25 55 25 52 0 55 1 55 25 0 20 5 25 25 25 20 0 25 -5 25 -25z m0 -180 c0 -52
1 -55 25 -55 20 0 25 -5 25 -25 0 -23 -3 -25 -50 -25 l-50 0 0 50 c0 48 -1 50
-27 51 -77 3 -78 3 -81 32 l-3 27 80 0 81 0 0 -55z"/>
<path d="M2060 1985 c0 -21 5 -25 30 -25 27 0 30 -3 30 -30 0 -25 4 -30 25
-30 21 0 25 5 25 30 0 25 -4 30 -25 30 -20 0 -25 5 -25 25 0 21 -5 25 -30 25
-25 0 -30 -4 -30 -25z"/>
<path d="M985 1735 l-25 -24 0 -341 0 -341 25 -24 24 -25 341 0 341 0 24 25
25 24 0 341 0 341 -25 24 -24 25 -341 0 -341 0 -24 -25z m235 -55 c72 7 92 3
118 -23 25 -26 27 -34 30 -127 l4 -100 -46 0 -46 0 0 90 c0 73 -3 90 -15 90
-12 0 -15 -17 -15 -90 l0 -90 -40 0 -39 0 -3 88 c-2 69 -6 87 -18 87 -12 0
-16 -18 -18 -87 l-3 -88 -39 0 -40 0 0 90 c0 49 5 100 11 114 16 34 66 58 104
50 17 -4 41 -6 55 -4z m387 -33 c38 -36 50 -81 34 -130 -18 -54 -53 -80 -115
-85 -50 -4 -56 -2 -91 30 -31 29 -38 42 -42 84 -4 40 0 55 19 84 45 66 136 74
195 17z m-412 -267 c4 -7 12 -7 25 0 48 26 121 -1 139 -51 6 -18 11 -70 11
-115 l0 -84 -45 0 -45 0 0 90 c0 73 -3 90 -15 90 -12 0 -15 -17 -15 -90 l0
-90 -40 0 -40 0 0 90 c0 83 -1 90 -20 90 -19 0 -20 -7 -20 -90 l0 -90 -40 0
-40 0 0 89 c0 105 9 134 47 155 32 17 89 21 98 6z m397 -15 c97 -66 62 -213
-55 -232 -46 -7 -102 19 -127 59 -73 120 66 252 182 173z m-385 -275 c20 0 12
-34 -10 -38 -13 -3 -17 3 -16 30 0 18 3 27 6 21 2 -7 11 -13 20 -13z m40 -27
c-3 -10 -5 -2 -5 17 0 19 2 27 5 18 2 -10 2 -26 0 -35z m33 12 c0 -14 -4 -25
-10 -25 -5 0 -10 11 -10 25 0 14 5 25 10 25 6 0 10 -11 10 -25z m-171 -7 c0
-22 -1 -22 -9 -3 -7 17 -9 17 -9 3 -1 -10 -5 -18 -11 -18 -5 0 -10 8 -11 18 0
14 -2 14 -9 -3 -8 -19 -9 -19 -9 3 -1 18 4 22 29 22 25 0 30 -4 29 -22z m59 5
c5 -18 -28 -29 -38 -12 -5 7 -6 17 -3 22 7 12 35 5 41 -10z m158 5 c5 -8 2 -9
-9 -5 -18 7 -24 -8 -7 -16 6 -3 5 -4 -2 -3 -19 4 -22 36 -4 36 8 0 18 -5 22
-12z m114 -8 c0 -26 -40 -28 -41 -2 0 14 -2 14 -9 -3 -8 -19 -9 -19 -9 3 -1
18 4 22 29 22 23 0 30 -4 30 -20z m50 0 c0 -11 -6 -20 -14 -20 -18 0 -29 16
-21 30 11 18 35 11 35 -10z m58 -3 c2 -9 -1 -17 -7 -17 -6 0 -11 8 -12 18 0
14 -2 14 -9 -3 -8 -19 -9 -19 -9 3 -1 17 4 23 16 20 10 -2 19 -11 21 -21z m45
17 c9 -10 -4 -34 -19 -34 -8 0 -14 9 -14 20 0 19 19 27 33 14z m49 -16 c-2 -9
-10 -22 -16 -28 -10 -7 -13 -3 -13 18 0 19 5 28 17 28 11 0 15 -6 12 -18z"/>
<path d="M1474 1585 c-34 -52 31 -111 76 -70 22 20 26 65 8 83 -21 21 -66 14
-84 -13z"/>
<path d="M1477 1292 c-24 -26 -21 -47 9 -71 25 -19 45 -19 72 2 15 12 16 59 0
75 -18 18 -63 14 -81 -6z"/>
<path d="M1190 1070 c0 -5 5 -10 10 -10 6 0 10 5 10 10 0 6 -4 10 -10 10 -5 0
-10 -4 -10 -10z"/>
<path d="M1460 1070 c0 -5 5 -10 10 -10 6 0 10 5 10 10 0 6 -4 10 -10 10 -5 0
-10 -4 -10 -10z"/>
<path d="M850 1720 c0 -25 4 -30 25 -30 21 0 25 5 25 30 0 25 -4 30 -25 30
-21 0 -25 -5 -25 -30z"/>
<path d="M2280 1695 l0 -55 -55 0 c-52 0 -55 -1 -55 -25 0 -24 3 -25 55 -25
52 0 55 1 55 25 0 23 3 25 50 25 47 0 50 2 50 25 0 20 -5 25 -25 25 -21 0 -25
5 -25 30 0 25 -4 30 -25 30 -24 0 -25 -3 -25 -55z"/>
<path d="M630 1665 c0 -24 3 -25 55 -25 52 0 55 -1 55 -25 0 -20 -5 -25 -25
-25 -21 0 -25 -5 -25 -30 0 -25 4 -30 25 -30 23 0 25 -3 25 -50 0 -47 2 -50
25 -50 l25 0 0 -105 0 -105 55 0 55 0 0 50 c0 47 -2 50 -25 50 -24 0 -25 3
-25 55 0 52 -1 55 -25 55 -20 0 -25 5 -25 25 0 20 5 25 25 25 20 0 25 5 25 25
0 20 5 25 25 25 24 0 25 3 25 55 l0 55 -80 0 c-79 0 -80 0 -80 25 0 24 -3 25
-55 25 -52 0 -55 -1 -55 -25z m218 -102 c-2 -20 -9 -29 -25 -31 -20 -3 -23 1
-23 27 0 27 4 31 26 31 22 0 25 -4 22 -27z"/>
<path d="M1900 1430 c0 -47 -2 -50 -25 -50 -20 0 -25 5 -25 25 0 20 -5 25 -25
25 -20 0 -25 -5 -25 -25 0 -20 5 -25 25 -25 21 0 25 -5 25 -30 0 -25 4 -30 25
-30 25 0 25 -1 25 -80 0 -79 0 -80 -25 -80 -20 0 -25 -5 -25 -25 0 -20 5 -25
25 -25 20 0 25 -5 25 -25 0 -23 -3 -25 -50 -25 l-50 0 0 -80 0 -80 55 0 c52 0
55 1 55 25 0 21 -5 25 -30 25 -25 0 -30 4 -30 24 0 19 6 25 28 28 21 2 28 9
30 31 3 21 9 27 28 27 19 0 24 5 24 25 0 25 1 25 80 25 79 0 80 0 80 -25 0
-20 5 -25 25 -25 20 0 25 5 25 25 0 20 -5 25 -25 25 -24 0 -25 3 -25 55 0 52
-1 55 -25 55 -20 0 -25 5 -25 25 0 21 -5 25 -30 25 l-30 0 0 80 c0 79 0 80
-25 80 -20 0 -25 5 -25 25 0 21 -5 25 -30 25 -29 0 -30 -1 -30 -50z m60 -80
c0 -25 -4 -30 -25 -30 -21 0 -25 5 -25 30 0 25 4 30 25 30 21 0 25 -5 25 -30z
m50 -105 c0 -20 5 -25 25 -25 21 0 25 -5 25 -31 0 -26 -3 -30 -22 -27 -17 2
-24 11 -26 31 -3 21 -9 27 -28 27 -19 0 -24 5 -24 25 0 20 5 25 25 25 20 0 25
-5 25 -25z"/>
<path d="M690 1295 c0 -20 5 -25 25 -25 20 0 25 5 25 25 0 20 -5 25 -25 25
-20 0 -25 -5 -25 -25z"/>
<path d="M850 1030 l0 -130 25 0 25 0 0 130 0 130 -25 0 -25 0 0 -130z"/>
<path d="M420 875 c0 -21 5 -25 30 -25 25 0 30 4 30 25 0 21 -5 25 -30 25 -25
0 -30 -4 -30 -25z"/>
<path d="M740 820 c0 -28 3 -31 28 -28 21 2 27 8 27 28 0 20 -6 26 -27 28 -25
3 -28 0 -28 -28z"/>
<path d="M790 685 l0 -55 -50 0 -50 0 0 -50 c0 -47 2 -50 25 -50 20 0 25 -5
25 -25 0 -24 3 -25 55 -25 54 0 55 0 55 -30 l0 -30 105 0 105 0 0 30 0 30 -80
0 c-79 0 -80 0 -80 25 0 20 -5 25 -25 25 -20 0 -25 5 -25 25 0 20 -5 25 -25
25 -20 0 -25 5 -25 25 0 23 3 25 50 25 49 0 50 1 50 30 0 25 4 30 25 30 20 0
25 5 25 25 0 20 -5 25 -25 25 -20 0 -25 -5 -25 -25 0 -20 -5 -25 -25 -25 -20
0 -25 5 -25 25 0 21 -5 25 -30 25 -30 0 -30 -1 -30 -55z m0 -130 c0 -20 -5
-25 -25 -25 -20 0 -25 5 -25 25 0 20 5 25 25 25 20 0 25 -5 25 -25z"/>
<path d="M1430 715 c0 -20 5 -25 25 -25 20 0 25 5 25 25 0 20 -5 25 -25 25
-20 0 -25 -5 -25 -25z"/>
<path d="M1060 660 c0 -25 4 -30 25 -30 21 0 25 5 25 30 0 25 -4 30 -25 30
-21 0 -25 -5 -25 -30z"/>
<path d="M1320 635 l0 -55 55 0 c52 0 55 1 55 25 0 20 -5 25 -25 25 -21 0 -25
5 -25 30 0 27 -3 30 -30 30 -30 0 -30 -1 -30 -55z"/>
<path d="M2120 635 c0 -54 0 -55 -30 -55 -25 0 -30 -4 -30 -25 0 -21 5 -25 30
-25 25 0 30 4 30 25 0 20 5 25 25 25 20 0 25 5 25 25 0 20 5 25 25 25 21 0 25
5 25 30 0 29 -1 30 -50 30 l-50 0 0 -55z"/>
<path d="M1320 2305 c0 -21 5 -25 30 -25 25 0 30 4 30 25 0 21 -5 25 -30 25
-25 0 -30 -4 -30 -25z"/>
<path d="M1960 2305 c0 -20 5 -25 25 -25 20 0 25 5 25 25 0 20 -5 25 -25 25
-20 0 -25 -5 -25 -25z"/>
<path d="M370 1350 c0 -25 4 -30 25 -30 21 0 25 5 25 30 0 25 -4 30 -25 30
-21 0 -25 -5 -25 -30z"/>
<path d="M2280 1350 c0 -25 4 -30 25 -30 21 0 25 5 25 30 0 25 -4 30 -25 30
-21 0 -25 -5 -25 -30z"/>
<path d="M1320 395 c0 -21 5 -25 30 -25 25 0 30 4 30 25 0 21 -5 25 -30 25
-25 0 -30 -4 -30 -25z"/>
<path d="M2280 395 c0 -20 5 -25 25 -25 20 0 25 5 25 25 0 20 -5 25 -25 25
-20 0 -25 -5 -25 -25z"/>
<path d="M690 235 c0 -20 5 -25 25 -25 20 0 25 5 25 25 0 20 -5 25 -25 25 -20
0 -25 -5 -25 -25z"/>
<path d="M2280 2465 l0 -185 185 0 185 0 0 185 0 185 -185 0 -185 0 0 -185z
m310 -5 l0 -130 -130 0 -130 0 0 130 0 130 130 0 130 0 0 -130z"/>
<path d="M2380 2460 l0 -80 80 0 80 0 0 80 0 80 -80 0 -80 0 0 -80z"/>
<path d="M2592 2143 c3 -76 4 -78 28 -78 24 0 25 2 28 78 l3 77 -31 0 -31 0 3
-77z"/>
<path d="M100 740 c0 -47 -2 -50 -26 -50 -22 0 -25 -4 -22 -27 2 -20 9 -29 26
-31 19 -3 22 -9 22 -53 0 -46 -2 -49 -25 -49 -20 0 -25 -5 -25 -25 0 -25 1
-25 80 -25 79 0 80 0 80 25 0 21 5 25 30 25 25 0 30 4 30 25 0 24 -3 25 -55
25 -52 0 -55 1 -55 25 0 20 5 25 25 25 21 0 25 5 25 30 0 25 -4 30 -25 30 -20
0 -25 5 -25 25 0 20 5 25 25 25 20 0 25 5 25 25 0 24 -3 25 -55 25 l-55 0 0
-50z m60 -80 c0 -25 -4 -30 -25 -30 -21 0 -25 5 -25 30 0 25 4 30 25 30 21 0
25 -5 25 -30z"/>
<path d="M2540 715 c0 -20 -5 -25 -25 -25 -21 0 -25 -5 -25 -30 0 -29 1 -30
49 -30 44 0 50 -3 53 -22 2 -17 11 -24 31 -26 l27 -3 0 80 0 81 -55 0 c-52 0
-55 -1 -55 -25z"/>
<path d="M2490 530 c0 -47 2 -50 25 -50 21 0 25 -5 25 -30 0 -25 -4 -30 -25
-30 -20 0 -25 -5 -25 -25 0 -25 1 -25 80 -25 l80 0 0 55 0 55 -55 0 -55 0 0
50 c0 47 -2 50 -25 50 -23 0 -25 -3 -25 -50z"/>
<path d="M50 235 l0 -185 185 0 185 0 0 185 0 185 -185 0 -185 0 0 -185z m320
1 l0 -133 -130 -1 -130 -1 0 134 0 135 130 0 130 0 0 -134z"/>
<path d="M160 240 l0 -80 80 0 80 0 0 80 0 80 -80 0 -80 0 0 -80z"/>
<path d="M2170 75 c0 -20 5 -25 25 -25 20 0 25 5 25 25 0 20 -5 25 -25 25 -20
0 -25 -5 -25 -25z"/>
</g>
</svg>
