<?xml version="1.0" standalone="no"?>
<!DOCTYPE svg PUBLIC "-//W3C//DTD SVG 20010904//EN"
 "http://www.w3.org/TR/2001/REC-SVG-20010904/DTD/svg10.dtd">
<svg version="1.0" xmlns="http://www.w3.org/2000/svg"
 width="512.000000pt" height="512.000000pt" viewBox="0 0 512.000000 512.000000"
 preserveAspectRatio="xMidYMid meet">

<g transform="translate(0.000000,512.000000) scale(0.100000,-0.100000)"
fill="#000000" stroke="none">
<path d="M1455 4954 c-287 -11 -446 -39 -568 -101 -196 -98 -350 -268 -428
-467 -51 -132 -58 -208 -68 -736 -5 -267 -8 -486 -7 -487 0 -1 24 4 51 12 28
7 154 18 280 25 127 6 231 13 231 13 1 1 7 207 13 457 12 509 13 515 83 595
94 107 154 119 608 118 388 0 488 -9 568 -49 61 -32 120 -98 142 -162 8 -22
15 -107 17 -209 l5 -173 286 0 285 0 -7 195 c-3 108 -13 227 -21 265 -68 322
-313 579 -630 660 -117 30 -570 53 -840 44z"/>
<path d="M3334 4076 c-11 -8 -57 -93 -103 -190 -78 -165 -82 -177 -69 -203 7
-15 26 -32 41 -37 53 -19 73 4 158 184 43 91 79 177 79 192 0 32 -34 68 -65
68 -11 0 -30 -6 -41 -14z"/>
<path d="M3525 3658 c-93 -33 -176 -65 -184 -71 -23 -19 -32 -56 -19 -80 14
-26 38 -46 57 -47 7 0 90 27 185 61 175 62 216 87 216 130 0 25 -43 69 -67 69
-10 -1 -94 -28 -188 -62z"/>
<path d="M3344 3358 c-32 -15 -48 -55 -34 -88 9 -22 44 -43 182 -109 93 -44
180 -81 192 -81 37 0 66 28 66 64 0 18 -6 39 -12 48 -12 15 -307 158 -353 171
-11 3 -30 1 -41 -5z"/>
<path d="M1840 1390 c-18 -18 -20 -33 -20 -140 0 -72 -4 -120 -10 -120 -5 0
-54 25 -107 55 -54 30 -105 55 -114 55 -32 0 -69 -40 -69 -74 0 -40 11 -50
128 -119 l93 -54 -33 -20 c-18 -11 -65 -39 -104 -61 -40 -23 -74 -49 -78 -58
-12 -30 -6 -71 12 -87 32 -29 76 -20 166 33 127 75 116 81 116 -63 0 -124 0
-126 26 -146 34 -26 54 -26 88 0 26 20 26 22 26 146 0 144 -11 138 116 63 92
-54 139 -63 167 -32 20 22 22 71 5 94 -7 9 -53 40 -103 68 -49 28 -93 55 -97
58 -4 4 32 29 80 56 113 63 132 81 132 122 0 35 -37 74 -69 74 -9 0 -60 -25
-113 -55 -53 -30 -101 -55 -107 -55 -7 0 -11 40 -11 120 0 107 -2 122 -20 140
-11 11 -33 20 -50 20 -17 0 -39 -9 -50 -20z"/>
<path d="M2679 1391 c-23 -18 -24 -27 -27 -144 l-4 -124 -101 58 c-126 73
-153 76 -183 17 -26 -51 -7 -77 107 -142 54 -32 99 -61 99 -64 0 -4 -42 -31
-94 -60 -52 -29 -100 -60 -107 -68 -18 -22 -15 -71 6 -94 30 -33 71 -25 175
34 l95 55 6 -117 c6 -131 10 -145 45 -161 37 -16 52 -14 79 14 24 23 25 30 25
145 0 66 3 120 6 120 3 0 47 -25 99 -55 102 -60 142 -68 175 -35 22 22 26 67
7 91 -7 9 -54 40 -105 69 -51 29 -94 56 -97 60 -2 4 35 29 83 56 103 57 132
84 132 119 0 32 -41 75 -72 75 -13 -1 -68 -27 -123 -60 l-100 -59 -3 122 c-2
108 -5 124 -24 144 -26 28 -68 30 -99 4z"/>
<path d="M3514 1389 c-16 -17 -20 -42 -24 -144 l-5 -123 -100 59 c-55 32 -110
59 -123 59 -29 0 -72 -42 -72 -70 0 -39 19 -57 120 -115 55 -31 100 -60 100
-64 0 -3 -41 -28 -91 -56 -128 -70 -151 -104 -108 -159 32 -40 69 -34 178 29
51 30 95 55 97 55 2 0 4 -54 4 -119 0 -141 11 -165 75 -165 64 0 75 24 75 165
0 65 2 119 4 119 3 0 47 -25 99 -55 123 -72 175 -72 193 1 10 38 -18 68 -115
124 -50 28 -93 55 -96 60 -3 4 40 33 95 64 100 57 120 76 120 116 0 28 -43 70
-72 70 -13 0 -68 -27 -123 -59 l-100 -59 -5 123 c-6 140 -17 165 -75 165 -20
0 -39 -8 -51 -21z"/>
<path d="M4352 1387 c-19 -20 -22 -36 -24 -144 l-3 -121 -100 59 c-55 32 -110
58 -123 59 -29 0 -72 -42 -72 -70 0 -39 19 -58 119 -116 55 -32 98 -61 95 -65
-2 -4 -38 -26 -79 -49 -104 -57 -135 -85 -135 -121 0 -38 32 -69 71 -69 18 0
67 21 125 55 53 30 97 55 100 55 2 0 4 -54 4 -120 0 -115 1 -122 25 -145 27
-28 42 -30 79 -14 35 16 39 30 45 161 l6 118 95 -55 c104 -60 145 -68 175 -35
21 23 24 72 6 94 -7 8 -55 39 -107 68 -52 29 -94 56 -94 60 0 3 45 32 99 64
114 65 133 91 107 142 -30 59 -57 56 -183 -17 l-101 -58 -4 124 c-3 117 -4
126 -27 144 -31 26 -73 24 -99 -4z"/>
</g>
</svg>
