<?xml version="1.0" standalone="no"?>
<!DOCTYPE svg PUBLIC "-//W3C//DTD SVG 20010904//EN"
 "http://www.w3.org/TR/2001/REC-SVG-20010904/DTD/svg10.dtd">
<svg version="1.0" xmlns="http://www.w3.org/2000/svg"
 width="128.000000pt" height="128.000000pt" viewBox="0 0 128.000000 128.000000"
 preserveAspectRatio="xMidYMid meet">

<g transform="translate(0.000000,128.000000) scale(0.100000,-0.100000)"
fill="#000000" stroke="none">
<path d="M600 1247 c0 -27 6 -35 42 -55 42 -22 42 -22 62 -3 16 17 17 22 6 36
-16 19 -43 34 -81 45 -28 8 -29 7 -29 -23z"/>
<path d="M830 1096 l0 -186 35 0 35 0 1 118 0 117 43 -115 44 -115 46 -3 46
-3 0 185 0 186 -30 0 -30 0 0 -115 c0 -63 -3 -115 -7 -115 -5 0 -26 51 -49
113 l-40 112 -47 3 -47 3 0 -185z"/>
<path d="M600 1095 c0 -34 1 -35 40 -35 27 0 40 -4 40 -14 0 -22 -40 -66 -61
-66 -15 0 -19 -7 -19 -35 0 -42 15 -45 70 -14 49 28 71 67 77 140 l6 59 -77 0
-76 0 0 -35z"/>
<path d="M691 802 c-54 -27 -76 -65 -76 -127 0 -91 60 -145 163 -145 l52 0 0
75 0 75 40 0 40 0 0 -75 0 -75 134 0 c122 0 136 2 167 23 89 59 89 185 0 244
-33 22 -42 23 -260 23 -195 0 -231 -2 -260 -18z"/>
</g>
</svg>
