<?xml version="1.0" standalone="no"?>
<!DOCTYPE svg PUBLIC "-//W3C//DTD SVG 20010904//EN"
 "http://www.w3.org/TR/2001/REC-SVG-20010904/DTD/svg10.dtd">
<svg version="1.0" xmlns="http://www.w3.org/2000/svg"
 width="512.000000pt" height="512.000000pt" viewBox="0 0 512.000000 512.000000"
 preserveAspectRatio="xMidYMid meet">

<g transform="translate(0.000000,512.000000) scale(0.100000,-0.100000)"
fill="#000000" stroke="none">
<path d="M2345 5099 c-139 -12 -254 -31 -273 -45 -15 -11 -18 -41 -22 -250
l-5 -239 -131 -42 c-72 -24 -193 -74 -270 -112 l-139 -69 -166 164 c-127 126
-171 164 -191 164 -41 0 -228 -149 -394 -315 -172 -172 -304 -340 -304 -388 0
-26 24 -54 162 -194 l163 -164 -42 -77 c-53 -99 -108 -231 -148 -357 l-32
-100 -236 -5 c-198 -4 -239 -8 -252 -21 -38 -38 -69 -401 -54 -644 13 -210 32
-325 60 -347 19 -16 47 -18 253 -18 l231 0 18 -63 c34 -118 88 -252 145 -362
l58 -110 -163 -166 c-133 -134 -163 -171 -163 -193 0 -71 344 -465 492 -563
62 -42 118 -16 118 55 0 24 -17 44 -105 123 -100 89 -220 218 -301 322 l-37
48 161 163 c133 133 162 167 162 191 0 15 -20 62 -45 104 -86 147 -162 334
-199 488 -27 111 -18 107 -287 111 -226 3 -229 3 -234 25 -31 137 -31 547 0
684 5 22 8 22 234 25 269 4 260 0 287 111 37 154 113 341 199 488 25 42 45 89
45 104 0 24 -29 58 -162 191 l-161 163 37 48 c118 152 252 288 410 415 l71 57
162 -161 c183 -183 190 -186 272 -134 125 80 309 158 481 207 69 19 111 36
123 50 15 19 17 47 17 249 l0 227 100 12 c56 6 179 11 275 11 l175 0 0 -213 0
-212 87 -23 c60 -15 96 -31 115 -49 19 -18 62 -36 144 -60 69 -20 149 -51 193
-76 42 -23 88 -42 103 -43 14 -1 71 -26 126 -57 55 -32 110 -57 123 -57 16 0
67 44 168 144 l146 144 76 -71 c94 -88 180 -184 271 -301 l69 -90 -176 -176
-176 -176 70 -135 c81 -155 112 -230 157 -384 l32 -110 81 -3 c77 -3 81 -4 87
-28 3 -13 18 -33 31 -44 23 -18 41 -20 168 -20 115 0 144 -3 148 -14 3 -8 11
-89 18 -181 10 -129 10 -200 1 -325 -7 -88 -15 -173 -18 -190 l-6 -30 -149 0
c-136 0 -151 -2 -169 -20 -11 -11 -20 -27 -20 -35 0 -11 -19 -15 -86 -17 l-86
-3 -33 -115 c-41 -142 -77 -229 -161 -389 l-65 -125 176 -176 175 -175 -64
-85 c-70 -93 -216 -256 -259 -290 l-27 -21 0 158 c0 173 -10 254 -42 353 -94
289 -310 494 -613 582 l-80 23 -715 0 -715 0 -80 -23 c-44 -13 -126 -46 -182
-73 -242 -118 -423 -370 -463 -647 -8 -50 -10 -209 -8 -452 l3 -375 26 -55
c48 -102 118 -164 219 -194 48 -14 183 -16 1200 -16 1017 0 1152 2 1200 16
101 30 172 93 217 191 20 43 26 76 30 169 l6 116 40 29 c25 18 52 29 73 29 28
0 49 13 111 68 198 174 433 454 433 514 0 26 -23 54 -161 194 l-162 163 67
133 c36 73 86 194 110 268 l44 135 236 5 c197 4 238 8 251 21 9 9 23 57 33
115 23 141 24 608 0 748 -25 148 -9 140 -291 144 l-232 3 -44 136 c-24 74 -74
195 -110 269 l-67 133 163 163 c186 187 186 188 126 272 -115 159 -256 314
-398 436 -112 95 -222 177 -245 180 -41 6 -64 -11 -215 -161 l-163 -161 -94
50 c-100 54 -259 118 -375 153 l-73 21 0 234 c0 277 5 264 -115 282 -203 30
-420 38 -610 21z m-10 -3529 l28 -139 -33 -142 c-33 -147 -33 -181 5 -195 27
-11 17 -42 -15 -49 -17 -4 -37 -16 -44 -28 -8 -12 -37 -124 -66 -249 -43 -190
-49 -230 -39 -249 10 -19 137 -160 288 -321 l35 -38 -352 0 -352 0 0 404 0
405 -26 20 c-35 27 -57 26 -91 -3 l-28 -24 -3 -401 -3 -401 -122 0 c-118 0
-125 1 -169 29 -30 19 -52 44 -67 74 -22 45 -22 50 -19 449 l4 403 27 80 c14
44 43 109 64 145 54 93 190 226 280 273 151 79 231 95 484 96 l186 1 28 -140z
m841 129 c273 -48 501 -221 618 -470 64 -134 66 -154 66 -558 0 -351 -1 -366
-21 -409 -13 -26 -38 -54 -62 -70 -38 -25 -49 -27 -169 -30 l-128 -4 0 385 c0
242 -4 395 -10 414 -10 28 -45 53 -74 53 -7 0 -25 -9 -40 -21 l-26 -20 0 -405
0 -404 -352 0 -352 0 30 33 c17 17 87 94 157 169 70 76 132 148 138 160 8 18
-11 112 -92 463 l-101 440 27 143 27 142 152 0 c84 0 179 -5 212 -11z"/>
<path d="M2415 3980 c-623 -69 -1120 -515 -1257 -1125 -13 -61 -21 -144 -25
-257 -6 -183 7 -297 53 -458 28 -96 125 -303 173 -368 26 -35 37 -42 66 -42
40 0 75 29 75 61 0 12 -22 60 -50 108 -296 515 -215 1146 200 1561 442 443
1113 506 1640 155 109 -73 264 -231 343 -351 281 -424 288 -974 17 -1400 -16
-26 -30 -58 -30 -71 0 -30 37 -63 73 -63 44 0 80 47 153 195 102 209 144 390
144 624 0 399 -143 743 -426 1024 -203 202 -474 342 -760 392 -108 19 -290 26
-389 15z"/>
<path d="M2456 3499 c-295 -38 -553 -259 -646 -554 -34 -108 -39 -283 -11
-400 56 -232 202 -415 416 -521 112 -55 183 -74 305 -81 348 -20 665 196 783
535 42 121 49 294 18 425 -35 146 -102 266 -212 375 -122 121 -285 200 -459
221 -94 12 -96 12 -194 0z m239 -150 c123 -21 272 -112 362 -222 123 -149 173
-365 128 -556 -53 -222 -244 -413 -471 -471 -316 -81 -652 101 -761 412 -38
107 -44 264 -14 373 74 270 300 456 581 478 44 3 99 -1 175 -14z"/>
</g>
</svg>
